<?xml version="1.0" encoding="UTF-8" standalone="no"?>
<!DOCTYPE svg PUBLIC "-//W3C//DTD SVG 1.1//EN"
 "http://www.w3.org/Graphics/SVG/1.1/DTD/svg11.dtd">
<!-- Generated by graphviz version 2.47.0 (20210316.0004)
 -->
<!-- Title: dependencies Pages: 1 -->
<svg width="814pt" height="211pt"
 viewBox="0.00 0.00 814.00 211.00" xmlns="http://www.w3.org/2000/svg" xmlns:xlink="http://www.w3.org/1999/xlink">
<g id="graph0" class="graph" transform="scale(1 1) rotate(0) translate(4 207)">
<title>dependencies</title>
<polygon fill="white" stroke="transparent" points="-4,4 -4,-207 810,-207 810,4 -4,4"/>
<text text-anchor="start" x="382.01" y="-42.4" font-family="Times-12" font-weight="bold" font-size="14.00">Legend</text>
<polygon fill="#ffffb3" stroke="transparent" points="169,-10 169,-30 189,-30 189,-10 169,-10"/>
<text text-anchor="start" x="192.63" y="-15.4" font-family="Times-12" font-size="14.00"> &#160;Declarations</text>
<polygon fill="#8dd3c7" stroke="transparent" points="282,-10 282,-30 302,-30 302,-10 282,-10"/>
<text text-anchor="start" x="305.73" y="-15.4" font-family="Times-12" font-size="14.00"> &#160;Module</text>
<polygon fill="#80b1d3" stroke="transparent" points="368,-10 368,-30 388,-30 388,-10 368,-10"/>
<text text-anchor="start" x="391.78" y="-15.4" font-family="Times-12" font-size="14.00"> &#160;Bootstrap</text>
<polygon fill="#fdb462" stroke="transparent" points="465,-10 465,-30 485,-30 485,-10 465,-10"/>
<text text-anchor="start" x="488.67" y="-15.4" font-family="Times-12" font-size="14.00"> &#160;Providers</text>
<polygon fill="#fb8072" stroke="transparent" points="561,-10 561,-30 581,-30 581,-10 561,-10"/>
<text text-anchor="start" x="584.73" y="-15.4" font-family="Times-12" font-size="14.00"> &#160;Exports</text>
<g id="clust1" class="cluster">
<title>cluster_BoardToMemberModule</title>
<polygon fill="none" stroke="black" stroke-dasharray="1,5" points="8,-70 8,-195 798,-195 798,-70 8,-70"/>
</g>
<g id="clust3" class="cluster">
<title>cluster_BoardToMemberModule_imports</title>
<polygon fill="none" stroke="black" points="664,-78 664,-130 790,-130 790,-78 664,-78"/>
</g>
<g id="clust6" class="cluster">
<title>cluster_BoardToMemberModule_providers</title>
<polygon fill="none" stroke="black" points="16,-78 16,-130 656,-130 656,-78 16,-78"/>
</g>
<!-- DatabaseModule -->
<g id="node1" class="node">
<title>DatabaseModule</title>
<polygon fill="#8dd3c7" stroke="black" points="782.35,-122 779.35,-126 758.35,-126 755.35,-122 671.65,-122 671.65,-86 782.35,-86 782.35,-122"/>
<text text-anchor="middle" x="727" y="-99.8" font-family="Times,serif" font-size="14.00">DatabaseModule</text>
</g>
<!-- BoardToMemberModule -->
<g id="node2" class="node">
<title>BoardToMemberModule</title>
<polygon fill="#8dd3c7" stroke="black" points="555.24,-187 552.24,-191 531.24,-191 528.24,-187 398.76,-187 398.76,-151 555.24,-151 555.24,-187"/>
<text text-anchor="middle" x="477" y="-164.8" font-family="Times,serif" font-size="14.00">BoardToMemberModule</text>
</g>
<!-- DatabaseModule&#45;&gt;BoardToMemberModule -->
<g id="edge1" class="edge">
<title>DatabaseModule&#45;&gt;BoardToMemberModule</title>
<path fill="none" stroke="black" d="M727,-122.11C727,-141.34 727,-169 727,-169 727,-169 565.42,-169 565.42,-169"/>
<polygon fill="black" stroke="black" points="565.42,-165.5 555.42,-169 565.42,-172.5 565.42,-165.5"/>
</g>
<!-- AppDbService -->
<g id="node3" class="node">
<title>AppDbService</title>
<ellipse fill="#fdb462" stroke="black" cx="580" cy="-104" rx="68.34" ry="18"/>
<text text-anchor="middle" x="580" y="-99.8" font-family="Times,serif" font-size="14.00">AppDbService</text>
</g>
<!-- AppDbService&#45;&gt;BoardToMemberModule -->
<g id="edge2" class="edge">
<title>AppDbService&#45;&gt;BoardToMemberModule</title>
<path fill="none" stroke="black" d="M533.47,-117.47C533.47,-117.47 533.47,-140.86 533.47,-140.86"/>
<polygon fill="black" stroke="black" points="529.97,-140.86 533.47,-150.86 536.97,-140.86 529.97,-140.86"/>
</g>
<!-- BoardToMemberDbService -->
<g id="node4" class="node">
<title>BoardToMemberDbService</title>
<ellipse fill="#fdb462" stroke="black" cx="375" cy="-104" rx="118.66" ry="18"/>
<text text-anchor="middle" x="375" y="-99.8" font-family="Times,serif" font-size="14.00">BoardToMemberDbService</text>
</g>
<!-- BoardToMemberDbService&#45;&gt;BoardToMemberModule -->
<g id="edge3" class="edge">
<title>BoardToMemberDbService&#45;&gt;BoardToMemberModule</title>
<path fill="none" stroke="black" d="M446.23,-118.43C446.23,-118.43 446.23,-140.89 446.23,-140.89"/>
<polygon fill="black" stroke="black" points="442.73,-140.89 446.23,-150.89 449.73,-140.89 442.73,-140.89"/>
</g>
<!-- BoardToMemberService -->
<g id="node5" class="node">
<title>BoardToMemberService</title>
<ellipse fill="#fdb462" stroke="black" cx="131" cy="-104" rx="107.06" ry="18"/>
<text text-anchor="middle" x="131" y="-99.8" font-family="Times,serif" font-size="14.00">BoardToMemberService</text>
</g>
<!-- BoardToMemberService&#45;&gt;BoardToMemberModule -->
<g id="edge4" class="edge">
<title>BoardToMemberService&#45;&gt;BoardToMemberModule</title>
<path fill="none" stroke="black" d="M131,-122.11C131,-141.34 131,-169 131,-169 131,-169 388.49,-169 388.49,-169"/>
<polygon fill="black" stroke="black" points="388.49,-172.5 398.49,-169 388.49,-165.5 388.49,-172.5"/>
</g>
</g>
</svg>
