<?xml version="1.0" encoding="UTF-8" standalone="no"?>
<!DOCTYPE svg PUBLIC "-//W3C//DTD SVG 1.1//EN"
 "http://www.w3.org/Graphics/SVG/1.1/DTD/svg11.dtd">
<!-- Generated by graphviz version 2.47.0 (20210316.0004)
 -->
<!-- Title: dependencies Pages: 1 -->
<svg width="906pt" height="211pt"
 viewBox="0.00 0.00 906.00 211.00" xmlns="http://www.w3.org/2000/svg" xmlns:xlink="http://www.w3.org/1999/xlink">
<g id="graph0" class="graph" transform="scale(1 1) rotate(0) translate(4 207)">
<title>dependencies</title>
<polygon fill="white" stroke="transparent" points="-4,4 -4,-207 902,-207 902,4 -4,4"/>
<text text-anchor="start" x="428.01" y="-42.4" font-family="Times-12" font-weight="bold" font-size="14.00">Legend</text>
<polygon fill="#ffffb3" stroke="transparent" points="215,-10 215,-30 235,-30 235,-10 215,-10"/>
<text text-anchor="start" x="238.63" y="-15.4" font-family="Times-12" font-size="14.00"> &#160;Declarations</text>
<polygon fill="#8dd3c7" stroke="transparent" points="328,-10 328,-30 348,-30 348,-10 328,-10"/>
<text text-anchor="start" x="351.73" y="-15.4" font-family="Times-12" font-size="14.00"> &#160;Module</text>
<polygon fill="#80b1d3" stroke="transparent" points="414,-10 414,-30 434,-30 434,-10 414,-10"/>
<text text-anchor="start" x="437.78" y="-15.4" font-family="Times-12" font-size="14.00"> &#160;Bootstrap</text>
<polygon fill="#fdb462" stroke="transparent" points="511,-10 511,-30 531,-30 531,-10 511,-10"/>
<text text-anchor="start" x="534.67" y="-15.4" font-family="Times-12" font-size="14.00"> &#160;Providers</text>
<polygon fill="#fb8072" stroke="transparent" points="607,-10 607,-30 627,-30 627,-10 607,-10"/>
<text text-anchor="start" x="630.73" y="-15.4" font-family="Times-12" font-size="14.00"> &#160;Exports</text>
<g id="clust1" class="cluster">
<title>cluster_CoordinatorToMemberModule</title>
<polygon fill="none" stroke="black" stroke-dasharray="1,5" points="8,-70 8,-195 890,-195 890,-70 8,-70"/>
</g>
<g id="clust3" class="cluster">
<title>cluster_CoordinatorToMemberModule_imports</title>
<polygon fill="none" stroke="black" points="756,-78 756,-130 882,-130 882,-78 756,-78"/>
</g>
<g id="clust6" class="cluster">
<title>cluster_CoordinatorToMemberModule_providers</title>
<polygon fill="none" stroke="black" points="16,-78 16,-130 748,-130 748,-78 16,-78"/>
</g>
<!-- DatabaseModule -->
<g id="node1" class="node">
<title>DatabaseModule</title>
<polygon fill="#8dd3c7" stroke="black" points="874.35,-122 871.35,-126 850.35,-126 847.35,-122 763.65,-122 763.65,-86 874.35,-86 874.35,-122"/>
<text text-anchor="middle" x="819" y="-99.8" font-family="Times,serif" font-size="14.00">DatabaseModule</text>
</g>
<!-- CoordinatorToMemberModule -->
<g id="node2" class="node">
<title>CoordinatorToMemberModule</title>
<polygon fill="#8dd3c7" stroke="black" points="653.18,-187 650.18,-191 629.18,-191 626.18,-187 462.82,-187 462.82,-151 653.18,-151 653.18,-187"/>
<text text-anchor="middle" x="558" y="-164.8" font-family="Times,serif" font-size="14.00">CoordinatorToMemberModule</text>
</g>
<!-- DatabaseModule&#45;&gt;CoordinatorToMemberModule -->
<g id="edge1" class="edge">
<title>DatabaseModule&#45;&gt;CoordinatorToMemberModule</title>
<path fill="none" stroke="black" d="M819,-122.11C819,-141.34 819,-169 819,-169 819,-169 663.33,-169 663.33,-169"/>
<polygon fill="black" stroke="black" points="663.33,-165.5 653.33,-169 663.33,-172.5 663.33,-165.5"/>
</g>
<!-- AppDbService -->
<g id="node3" class="node">
<title>AppDbService</title>
<ellipse fill="#fdb462" stroke="black" cx="672" cy="-104" rx="68.34" ry="18"/>
<text text-anchor="middle" x="672" y="-99.8" font-family="Times,serif" font-size="14.00">AppDbService</text>
</g>
<!-- AppDbService&#45;&gt;CoordinatorToMemberModule -->
<g id="edge2" class="edge">
<title>AppDbService&#45;&gt;CoordinatorToMemberModule</title>
<path fill="none" stroke="black" d="M628.34,-118.1C628.34,-118.1 628.34,-140.72 628.34,-140.72"/>
<polygon fill="black" stroke="black" points="624.84,-140.72 628.34,-150.72 631.84,-140.72 624.84,-140.72"/>
</g>
<!-- CoordinatorToMemberDbService -->
<g id="node4" class="node">
<title>CoordinatorToMemberDbService</title>
<ellipse fill="#fdb462" stroke="black" cx="444" cy="-104" rx="141.8" ry="18"/>
<text text-anchor="middle" x="444" y="-99.8" font-family="Times,serif" font-size="14.00">CoordinatorToMemberDbService</text>
</g>
<!-- CoordinatorToMemberDbService&#45;&gt;CoordinatorToMemberModule -->
<g id="edge3" class="edge">
<title>CoordinatorToMemberDbService&#45;&gt;CoordinatorToMemberModule</title>
<path fill="none" stroke="black" d="M524.4,-119.08C524.4,-119.08 524.4,-140.76 524.4,-140.76"/>
<polygon fill="black" stroke="black" points="520.9,-140.76 524.4,-150.76 527.9,-140.76 520.9,-140.76"/>
</g>
<!-- CoordinatorToMemberService -->
<g id="node5" class="node">
<title>CoordinatorToMemberService</title>
<ellipse fill="#fdb462" stroke="black" cx="154" cy="-104" rx="130.2" ry="18"/>
<text text-anchor="middle" x="154" y="-99.8" font-family="Times,serif" font-size="14.00">CoordinatorToMemberService</text>
</g>
<!-- CoordinatorToMemberService&#45;&gt;CoordinatorToMemberModule -->
<g id="edge4" class="edge">
<title>CoordinatorToMemberService&#45;&gt;CoordinatorToMemberModule</title>
<path fill="none" stroke="black" d="M154,-122.11C154,-141.34 154,-169 154,-169 154,-169 452.77,-169 452.77,-169"/>
<polygon fill="black" stroke="black" points="452.77,-172.5 462.77,-169 452.77,-165.5 452.77,-172.5"/>
</g>
</g>
</svg>
