<?xml version="1.0" encoding="UTF-8" standalone="no"?>
<!DOCTYPE svg PUBLIC "-//W3C//DTD SVG 1.1//EN"
 "http://www.w3.org/Graphics/SVG/1.1/DTD/svg11.dtd">
<!-- Generated by graphviz version 2.47.0 (20210316.0004)
 -->
<!-- Title: dependencies Pages: 1 -->
<svg width="722pt" height="211pt"
 viewBox="0.00 0.00 722.00 211.00" xmlns="http://www.w3.org/2000/svg" xmlns:xlink="http://www.w3.org/1999/xlink">
<g id="graph0" class="graph" transform="scale(1 1) rotate(0) translate(4 207)">
<title>dependencies</title>
<polygon fill="white" stroke="transparent" points="-4,4 -4,-207 718,-207 718,4 -4,4"/>
<text text-anchor="start" x="336.01" y="-42.4" font-family="Times-12" font-weight="bold" font-size="14.00">Legend</text>
<polygon fill="#ffffb3" stroke="transparent" points="123,-10 123,-30 143,-30 143,-10 123,-10"/>
<text text-anchor="start" x="146.63" y="-15.4" font-family="Times-12" font-size="14.00"> &#160;Declarations</text>
<polygon fill="#8dd3c7" stroke="transparent" points="236,-10 236,-30 256,-30 256,-10 236,-10"/>
<text text-anchor="start" x="259.73" y="-15.4" font-family="Times-12" font-size="14.00"> &#160;Module</text>
<polygon fill="#80b1d3" stroke="transparent" points="322,-10 322,-30 342,-30 342,-10 322,-10"/>
<text text-anchor="start" x="345.78" y="-15.4" font-family="Times-12" font-size="14.00"> &#160;Bootstrap</text>
<polygon fill="#fdb462" stroke="transparent" points="419,-10 419,-30 439,-30 439,-10 419,-10"/>
<text text-anchor="start" x="442.67" y="-15.4" font-family="Times-12" font-size="14.00"> &#160;Providers</text>
<polygon fill="#fb8072" stroke="transparent" points="515,-10 515,-30 535,-30 535,-10 515,-10"/>
<text text-anchor="start" x="538.73" y="-15.4" font-family="Times-12" font-size="14.00"> &#160;Exports</text>
<g id="clust1" class="cluster">
<title>cluster_TranslationModule</title>
<polygon fill="none" stroke="black" stroke-dasharray="1,5" points="8,-70 8,-195 706,-195 706,-70 8,-70"/>
</g>
<g id="clust3" class="cluster">
<title>cluster_TranslationModule_imports</title>
<polygon fill="none" stroke="black" points="572,-78 572,-130 698,-130 698,-78 572,-78"/>
</g>
<g id="clust6" class="cluster">
<title>cluster_TranslationModule_providers</title>
<polygon fill="none" stroke="black" points="16,-78 16,-130 564,-130 564,-78 16,-78"/>
</g>
<!-- DatabaseModule -->
<g id="node1" class="node">
<title>DatabaseModule</title>
<polygon fill="#8dd3c7" stroke="black" points="690.35,-122 687.35,-126 666.35,-126 663.35,-122 579.65,-122 579.65,-86 690.35,-86 690.35,-122"/>
<text text-anchor="middle" x="635" y="-99.8" font-family="Times,serif" font-size="14.00">DatabaseModule</text>
</g>
<!-- TranslationModule -->
<g id="node2" class="node">
<title>TranslationModule</title>
<polygon fill="#8dd3c7" stroke="black" points="458.81,-187 455.81,-191 434.81,-191 431.81,-187 335.19,-187 335.19,-151 458.81,-151 458.81,-187"/>
<text text-anchor="middle" x="397" y="-164.8" font-family="Times,serif" font-size="14.00">TranslationModule</text>
</g>
<!-- DatabaseModule&#45;&gt;TranslationModule -->
<g id="edge1" class="edge">
<title>DatabaseModule&#45;&gt;TranslationModule</title>
<path fill="none" stroke="black" d="M635,-122.11C635,-141.34 635,-169 635,-169 635,-169 468.91,-169 468.91,-169"/>
<polygon fill="black" stroke="black" points="468.91,-165.5 458.91,-169 468.91,-172.5 468.91,-165.5"/>
</g>
<!-- AppDbService -->
<g id="node3" class="node">
<title>AppDbService</title>
<ellipse fill="#fdb462" stroke="black" cx="488" cy="-104" rx="68.34" ry="18"/>
<text text-anchor="middle" x="488" y="-99.8" font-family="Times,serif" font-size="14.00">AppDbService</text>
</g>
<!-- AppDbService&#45;&gt;TranslationModule -->
<g id="edge2" class="edge">
<title>AppDbService&#45;&gt;TranslationModule</title>
<path fill="none" stroke="black" d="M439.12,-116.84C439.12,-116.84 439.12,-140.52 439.12,-140.52"/>
<polygon fill="black" stroke="black" points="435.62,-140.52 439.12,-150.52 442.62,-140.52 435.62,-140.52"/>
</g>
<!-- TranslationDbService -->
<g id="node4" class="node">
<title>TranslationDbService</title>
<ellipse fill="#fdb462" stroke="black" cx="306" cy="-104" rx="95.54" ry="18"/>
<text text-anchor="middle" x="306" y="-99.8" font-family="Times,serif" font-size="14.00">TranslationDbService</text>
</g>
<!-- TranslationDbService&#45;&gt;TranslationModule -->
<g id="edge3" class="edge">
<title>TranslationDbService&#45;&gt;TranslationModule</title>
<path fill="none" stroke="black" d="M368.56,-117.78C368.56,-117.78 368.56,-140.55 368.56,-140.55"/>
<polygon fill="black" stroke="black" points="365.06,-140.55 368.56,-150.55 372.06,-140.55 365.06,-140.55"/>
</g>
<!-- TranslationService -->
<g id="node5" class="node">
<title>TranslationService</title>
<ellipse fill="#fdb462" stroke="black" cx="108" cy="-104" rx="83.94" ry="18"/>
<text text-anchor="middle" x="108" y="-99.8" font-family="Times,serif" font-size="14.00">TranslationService</text>
</g>
<!-- TranslationService&#45;&gt;TranslationModule -->
<g id="edge4" class="edge">
<title>TranslationService&#45;&gt;TranslationModule</title>
<path fill="none" stroke="black" d="M108,-122.11C108,-141.34 108,-169 108,-169 108,-169 325,-169 325,-169"/>
<polygon fill="black" stroke="black" points="325,-172.5 335,-169 325,-165.5 325,-172.5"/>
</g>
</g>
</svg>
