<?xml version="1.0" encoding="UTF-8" standalone="no"?>
<!DOCTYPE svg PUBLIC "-//W3C//DTD SVG 1.1//EN"
 "http://www.w3.org/Graphics/SVG/1.1/DTD/svg11.dtd">
<!-- Generated by graphviz version 2.47.0 (20210316.0004)
 -->
<!-- Title: dependencies Pages: 1 -->
<svg width="733pt" height="211pt"
 viewBox="0.00 0.00 733.00 211.00" xmlns="http://www.w3.org/2000/svg" xmlns:xlink="http://www.w3.org/1999/xlink">
<g id="graph0" class="graph" transform="scale(1 1) rotate(0) translate(4 207)">
<title>dependencies</title>
<polygon fill="white" stroke="transparent" points="-4,4 -4,-207 729,-207 729,4 -4,4"/>
<text text-anchor="start" x="341.51" y="-42.4" font-family="Times-12" font-weight="bold" font-size="14.00">Legend</text>
<polygon fill="#ffffb3" stroke="transparent" points="128.5,-10 128.5,-30 148.5,-30 148.5,-10 128.5,-10"/>
<text text-anchor="start" x="152.13" y="-15.4" font-family="Times-12" font-size="14.00"> &#160;Declarations</text>
<polygon fill="#8dd3c7" stroke="transparent" points="241.5,-10 241.5,-30 261.5,-30 261.5,-10 241.5,-10"/>
<text text-anchor="start" x="265.23" y="-15.4" font-family="Times-12" font-size="14.00"> &#160;Module</text>
<polygon fill="#80b1d3" stroke="transparent" points="327.5,-10 327.5,-30 347.5,-30 347.5,-10 327.5,-10"/>
<text text-anchor="start" x="351.28" y="-15.4" font-family="Times-12" font-size="14.00"> &#160;Bootstrap</text>
<polygon fill="#fdb462" stroke="transparent" points="424.5,-10 424.5,-30 444.5,-30 444.5,-10 424.5,-10"/>
<text text-anchor="start" x="448.17" y="-15.4" font-family="Times-12" font-size="14.00"> &#160;Providers</text>
<polygon fill="#fb8072" stroke="transparent" points="520.5,-10 520.5,-30 540.5,-30 540.5,-10 520.5,-10"/>
<text text-anchor="start" x="544.23" y="-15.4" font-family="Times-12" font-size="14.00"> &#160;Exports</text>
<g id="clust1" class="cluster">
<title>cluster_CoordinatorModule</title>
<polygon fill="none" stroke="black" stroke-dasharray="1,5" points="8,-70 8,-195 717,-195 717,-70 8,-70"/>
</g>
<g id="clust3" class="cluster">
<title>cluster_CoordinatorModule_imports</title>
<polygon fill="none" stroke="black" points="583,-78 583,-130 709,-130 709,-78 583,-78"/>
</g>
<g id="clust6" class="cluster">
<title>cluster_CoordinatorModule_providers</title>
<polygon fill="none" stroke="black" points="16,-78 16,-130 575,-130 575,-78 16,-78"/>
</g>
<!-- DatabaseModule -->
<g id="node1" class="node">
<title>DatabaseModule</title>
<polygon fill="#8dd3c7" stroke="black" points="701.35,-122 698.35,-126 677.35,-126 674.35,-122 590.65,-122 590.65,-86 701.35,-86 701.35,-122"/>
<text text-anchor="middle" x="646" y="-99.8" font-family="Times,serif" font-size="14.00">DatabaseModule</text>
</g>
<!-- CoordinatorModule -->
<g id="node2" class="node">
<title>CoordinatorModule</title>
<polygon fill="#8dd3c7" stroke="black" points="469.7,-187 466.7,-191 445.7,-191 442.7,-187 342.3,-187 342.3,-151 469.7,-151 469.7,-187"/>
<text text-anchor="middle" x="406" y="-164.8" font-family="Times,serif" font-size="14.00">CoordinatorModule</text>
</g>
<!-- DatabaseModule&#45;&gt;CoordinatorModule -->
<g id="edge1" class="edge">
<title>DatabaseModule&#45;&gt;CoordinatorModule</title>
<path fill="none" stroke="black" d="M646,-122.11C646,-141.34 646,-169 646,-169 646,-169 479.69,-169 479.69,-169"/>
<polygon fill="black" stroke="black" points="479.69,-165.5 469.69,-169 479.69,-172.5 479.69,-165.5"/>
</g>
<!-- AppDbService -->
<g id="node3" class="node">
<title>AppDbService</title>
<ellipse fill="#fdb462" stroke="black" cx="499" cy="-104" rx="68.34" ry="18"/>
<text text-anchor="middle" x="499" y="-99.8" font-family="Times,serif" font-size="14.00">AppDbService</text>
</g>
<!-- AppDbService&#45;&gt;CoordinatorModule -->
<g id="edge2" class="edge">
<title>AppDbService&#45;&gt;CoordinatorModule</title>
<path fill="none" stroke="black" d="M450.09,-116.84C450.09,-116.84 450.09,-140.52 450.09,-140.52"/>
<polygon fill="black" stroke="black" points="446.59,-140.52 450.09,-150.52 453.59,-140.52 446.59,-140.52"/>
</g>
<!-- CoordinatorDbService -->
<g id="node4" class="node">
<title>CoordinatorDbService</title>
<ellipse fill="#fdb462" stroke="black" cx="314" cy="-104" rx="98.42" ry="18"/>
<text text-anchor="middle" x="314" y="-99.8" font-family="Times,serif" font-size="14.00">CoordinatorDbService</text>
</g>
<!-- CoordinatorDbService&#45;&gt;CoordinatorModule -->
<g id="edge3" class="edge">
<title>CoordinatorDbService&#45;&gt;CoordinatorModule</title>
<path fill="none" stroke="black" d="M377.43,-117.78C377.43,-117.78 377.43,-140.55 377.43,-140.55"/>
<polygon fill="black" stroke="black" points="373.93,-140.55 377.43,-150.55 380.93,-140.55 373.93,-140.55"/>
</g>
<!-- CoordinatorService -->
<g id="node5" class="node">
<title>CoordinatorService</title>
<ellipse fill="#fdb462" stroke="black" cx="111" cy="-104" rx="86.82" ry="18"/>
<text text-anchor="middle" x="111" y="-99.8" font-family="Times,serif" font-size="14.00">CoordinatorService</text>
</g>
<!-- CoordinatorService&#45;&gt;CoordinatorModule -->
<g id="edge4" class="edge">
<title>CoordinatorService&#45;&gt;CoordinatorModule</title>
<path fill="none" stroke="black" d="M111,-122.11C111,-141.34 111,-169 111,-169 111,-169 332.35,-169 332.35,-169"/>
<polygon fill="black" stroke="black" points="332.35,-172.5 342.35,-169 332.35,-165.5 332.35,-172.5"/>
</g>
</g>
</svg>
