<?xml version="1.0" encoding="UTF-8" standalone="no"?>
<!DOCTYPE svg PUBLIC "-//W3C//DTD SVG 1.1//EN"
 "http://www.w3.org/Graphics/SVG/1.1/DTD/svg11.dtd">
<!-- Generated by graphviz version 2.47.0 (20210316.0004)
 -->
<!-- Title: dependencies Pages: 1 -->
<svg width="674pt" height="211pt"
 viewBox="0.00 0.00 674.00 211.00" xmlns="http://www.w3.org/2000/svg" xmlns:xlink="http://www.w3.org/1999/xlink">
<g id="graph0" class="graph" transform="scale(1 1) rotate(0) translate(4 207)">
<title>dependencies</title>
<polygon fill="white" stroke="transparent" points="-4,4 -4,-207 670,-207 670,4 -4,4"/>
<text text-anchor="start" x="312.01" y="-42.4" font-family="Times-12" font-weight="bold" font-size="14.00">Legend</text>
<polygon fill="#ffffb3" stroke="transparent" points="99,-10 99,-30 119,-30 119,-10 99,-10"/>
<text text-anchor="start" x="122.63" y="-15.4" font-family="Times-12" font-size="14.00"> &#160;Declarations</text>
<polygon fill="#8dd3c7" stroke="transparent" points="212,-10 212,-30 232,-30 232,-10 212,-10"/>
<text text-anchor="start" x="235.73" y="-15.4" font-family="Times-12" font-size="14.00"> &#160;Module</text>
<polygon fill="#80b1d3" stroke="transparent" points="298,-10 298,-30 318,-30 318,-10 298,-10"/>
<text text-anchor="start" x="321.78" y="-15.4" font-family="Times-12" font-size="14.00"> &#160;Bootstrap</text>
<polygon fill="#fdb462" stroke="transparent" points="395,-10 395,-30 415,-30 415,-10 395,-10"/>
<text text-anchor="start" x="418.67" y="-15.4" font-family="Times-12" font-size="14.00"> &#160;Providers</text>
<polygon fill="#fb8072" stroke="transparent" points="491,-10 491,-30 511,-30 511,-10 491,-10"/>
<text text-anchor="start" x="514.73" y="-15.4" font-family="Times-12" font-size="14.00"> &#160;Exports</text>
<g id="clust1" class="cluster">
<title>cluster_MeetingModule</title>
<polygon fill="none" stroke="black" stroke-dasharray="1,5" points="8,-70 8,-195 658,-195 658,-70 8,-70"/>
</g>
<g id="clust3" class="cluster">
<title>cluster_MeetingModule_imports</title>
<polygon fill="none" stroke="black" points="524,-78 524,-130 650,-130 650,-78 524,-78"/>
</g>
<g id="clust6" class="cluster">
<title>cluster_MeetingModule_providers</title>
<polygon fill="none" stroke="black" points="16,-78 16,-130 516,-130 516,-78 16,-78"/>
</g>
<!-- DatabaseModule -->
<g id="node1" class="node">
<title>DatabaseModule</title>
<polygon fill="#8dd3c7" stroke="black" points="642.35,-122 639.35,-126 618.35,-126 615.35,-122 531.65,-122 531.65,-86 642.35,-86 642.35,-122"/>
<text text-anchor="middle" x="587" y="-99.8" font-family="Times,serif" font-size="14.00">DatabaseModule</text>
</g>
<!-- MeetingModule -->
<g id="node2" class="node">
<title>MeetingModule</title>
<polygon fill="#8dd3c7" stroke="black" points="408.2,-187 405.2,-191 384.2,-191 381.2,-187 301.8,-187 301.8,-151 408.2,-151 408.2,-187"/>
<text text-anchor="middle" x="355" y="-164.8" font-family="Times,serif" font-size="14.00">MeetingModule</text>
</g>
<!-- DatabaseModule&#45;&gt;MeetingModule -->
<g id="edge1" class="edge">
<title>DatabaseModule&#45;&gt;MeetingModule</title>
<path fill="none" stroke="black" d="M587,-122.11C587,-141.34 587,-169 587,-169 587,-169 418.23,-169 418.23,-169"/>
<polygon fill="black" stroke="black" points="418.23,-165.5 408.23,-169 418.23,-172.5 418.23,-165.5"/>
</g>
<!-- AppDbService -->
<g id="node3" class="node">
<title>AppDbService</title>
<ellipse fill="#fdb462" stroke="black" cx="440" cy="-104" rx="68.34" ry="18"/>
<text text-anchor="middle" x="440" y="-99.8" font-family="Times,serif" font-size="14.00">AppDbService</text>
</g>
<!-- AppDbService&#45;&gt;MeetingModule -->
<g id="edge2" class="edge">
<title>AppDbService&#45;&gt;MeetingModule</title>
<path fill="none" stroke="black" d="M389.84,-116.53C389.84,-116.53 389.84,-140.85 389.84,-140.85"/>
<polygon fill="black" stroke="black" points="386.34,-140.85 389.84,-150.85 393.34,-140.85 386.34,-140.85"/>
</g>
<!-- MeetingDbService -->
<g id="node4" class="node">
<title>MeetingDbService</title>
<ellipse fill="#fdb462" stroke="black" cx="270" cy="-104" rx="83.95" ry="18"/>
<text text-anchor="middle" x="270" y="-99.8" font-family="Times,serif" font-size="14.00">MeetingDbService</text>
</g>
<!-- MeetingDbService&#45;&gt;MeetingModule -->
<g id="edge3" class="edge">
<title>MeetingDbService&#45;&gt;MeetingModule</title>
<path fill="none" stroke="black" d="M327.94,-117.15C327.94,-117.15 327.94,-140.69 327.94,-140.69"/>
<polygon fill="black" stroke="black" points="324.44,-140.69 327.94,-150.69 331.44,-140.69 324.44,-140.69"/>
</g>
<!-- MeetingService -->
<g id="node5" class="node">
<title>MeetingService</title>
<ellipse fill="#fdb462" stroke="black" cx="96" cy="-104" rx="72.35" ry="18"/>
<text text-anchor="middle" x="96" y="-99.8" font-family="Times,serif" font-size="14.00">MeetingService</text>
</g>
<!-- MeetingService&#45;&gt;MeetingModule -->
<g id="edge4" class="edge">
<title>MeetingService&#45;&gt;MeetingModule</title>
<path fill="none" stroke="black" d="M96,-122.11C96,-141.34 96,-169 96,-169 96,-169 291.65,-169 291.65,-169"/>
<polygon fill="black" stroke="black" points="291.65,-172.5 301.65,-169 291.65,-165.5 291.65,-172.5"/>
</g>
</g>
</svg>
