<?xml version="1.0" encoding="UTF-8" standalone="no"?>
<!DOCTYPE svg PUBLIC "-//W3C//DTD SVG 1.1//EN"
 "http://www.w3.org/Graphics/SVG/1.1/DTD/svg11.dtd">
<!-- Generated by graphviz version 2.47.0 (20210316.0004)
 -->
<!-- Title: dependencies Pages: 1 -->
<svg width="641pt" height="211pt"
 viewBox="0.00 0.00 641.00 211.00" xmlns="http://www.w3.org/2000/svg" xmlns:xlink="http://www.w3.org/1999/xlink">
<g id="graph0" class="graph" transform="scale(1 1) rotate(0) translate(4 207)">
<title>dependencies</title>
<polygon fill="white" stroke="transparent" points="-4,4 -4,-207 637,-207 637,4 -4,4"/>
<text text-anchor="start" x="295.51" y="-42.4" font-family="Times-12" font-weight="bold" font-size="14.00">Legend</text>
<polygon fill="#ffffb3" stroke="transparent" points="82.5,-10 82.5,-30 102.5,-30 102.5,-10 82.5,-10"/>
<text text-anchor="start" x="106.13" y="-15.4" font-family="Times-12" font-size="14.00"> &#160;Declarations</text>
<polygon fill="#8dd3c7" stroke="transparent" points="195.5,-10 195.5,-30 215.5,-30 215.5,-10 195.5,-10"/>
<text text-anchor="start" x="219.23" y="-15.4" font-family="Times-12" font-size="14.00"> &#160;Module</text>
<polygon fill="#80b1d3" stroke="transparent" points="281.5,-10 281.5,-30 301.5,-30 301.5,-10 281.5,-10"/>
<text text-anchor="start" x="305.28" y="-15.4" font-family="Times-12" font-size="14.00"> &#160;Bootstrap</text>
<polygon fill="#fdb462" stroke="transparent" points="378.5,-10 378.5,-30 398.5,-30 398.5,-10 378.5,-10"/>
<text text-anchor="start" x="402.17" y="-15.4" font-family="Times-12" font-size="14.00"> &#160;Providers</text>
<polygon fill="#fb8072" stroke="transparent" points="474.5,-10 474.5,-30 494.5,-30 494.5,-10 474.5,-10"/>
<text text-anchor="start" x="498.23" y="-15.4" font-family="Times-12" font-size="14.00"> &#160;Exports</text>
<g id="clust1" class="cluster">
<title>cluster_BoardModule</title>
<polygon fill="none" stroke="black" stroke-dasharray="1,5" points="8,-70 8,-195 625,-195 625,-70 8,-70"/>
</g>
<g id="clust6" class="cluster">
<title>cluster_BoardModule_providers</title>
<polygon fill="none" stroke="black" points="150,-78 150,-130 617,-130 617,-78 150,-78"/>
</g>
<g id="clust3" class="cluster">
<title>cluster_BoardModule_imports</title>
<polygon fill="none" stroke="black" points="16,-78 16,-130 142,-130 142,-78 16,-78"/>
</g>
<!-- DatabaseModule -->
<g id="node1" class="node">
<title>DatabaseModule</title>
<polygon fill="#8dd3c7" stroke="black" points="134.35,-122 131.35,-126 110.35,-126 107.35,-122 23.65,-122 23.65,-86 134.35,-86 134.35,-122"/>
<text text-anchor="middle" x="79" y="-99.8" font-family="Times,serif" font-size="14.00">DatabaseModule</text>
</g>
<!-- BoardModule -->
<g id="node2" class="node">
<title>BoardModule</title>
<polygon fill="#8dd3c7" stroke="black" points="346.76,-187 343.76,-191 322.76,-191 319.76,-187 253.24,-187 253.24,-151 346.76,-151 346.76,-187"/>
<text text-anchor="middle" x="300" y="-164.8" font-family="Times,serif" font-size="14.00">BoardModule</text>
</g>
<!-- DatabaseModule&#45;&gt;BoardModule -->
<g id="edge1" class="edge">
<title>DatabaseModule&#45;&gt;BoardModule</title>
<path fill="none" stroke="black" d="M79,-122.11C79,-141.34 79,-169 79,-169 79,-169 243.13,-169 243.13,-169"/>
<polygon fill="black" stroke="black" points="243.13,-172.5 253.13,-169 243.13,-165.5 243.13,-172.5"/>
</g>
<!-- AppDbService -->
<g id="node3" class="node">
<title>AppDbService</title>
<ellipse fill="#fdb462" stroke="black" cx="541" cy="-104" rx="68.34" ry="18"/>
<text text-anchor="middle" x="541" y="-99.8" font-family="Times,serif" font-size="14.00">AppDbService</text>
</g>
<!-- AppDbService&#45;&gt;BoardModule -->
<g id="edge2" class="edge">
<title>AppDbService&#45;&gt;BoardModule</title>
<path fill="none" stroke="black" d="M541,-122.11C541,-141.34 541,-169 541,-169 541,-169 357.04,-169 357.04,-169"/>
<polygon fill="black" stroke="black" points="357.04,-165.5 347.04,-169 357.04,-172.5 357.04,-165.5"/>
</g>
<!-- BoardDbService -->
<g id="node4" class="node">
<title>BoardDbService</title>
<ellipse fill="#fdb462" stroke="black" cx="379" cy="-104" rx="75.28" ry="18"/>
<text text-anchor="middle" x="379" y="-99.8" font-family="Times,serif" font-size="14.00">BoardDbService</text>
</g>
<!-- BoardDbService&#45;&gt;BoardModule -->
<g id="edge3" class="edge">
<title>BoardDbService&#45;&gt;BoardModule</title>
<path fill="none" stroke="black" d="M325.25,-116.84C325.25,-116.84 325.25,-140.52 325.25,-140.52"/>
<polygon fill="black" stroke="black" points="321.75,-140.52 325.25,-150.52 328.75,-140.52 321.75,-140.52"/>
</g>
<!-- BoardService -->
<g id="node5" class="node">
<title>BoardService</title>
<ellipse fill="#fdb462" stroke="black" cx="222" cy="-104" rx="63.68" ry="18"/>
<text text-anchor="middle" x="222" y="-99.8" font-family="Times,serif" font-size="14.00">BoardService</text>
</g>
<!-- BoardService&#45;&gt;BoardModule -->
<g id="edge4" class="edge">
<title>BoardService&#45;&gt;BoardModule</title>
<path fill="none" stroke="black" d="M269.35,-116.23C269.35,-116.23 269.35,-140.68 269.35,-140.68"/>
<polygon fill="black" stroke="black" points="265.85,-140.68 269.35,-150.68 272.85,-140.68 265.85,-140.68"/>
</g>
</g>
</svg>
