<?xml version="1.0" encoding="UTF-8" standalone="no"?>
<!DOCTYPE svg PUBLIC "-//W3C//DTD SVG 1.1//EN"
 "http://www.w3.org/Graphics/SVG/1.1/DTD/svg11.dtd">
<!-- Generated by graphviz version 2.47.0 (20210316.0004)
 -->
<!-- Title: dependencies Pages: 1 -->
<svg width="1765pt" height="211pt"
 viewBox="0.00 0.00 1765.00 211.00" xmlns="http://www.w3.org/2000/svg" xmlns:xlink="http://www.w3.org/1999/xlink">
<g id="graph0" class="graph" transform="scale(1 1) rotate(0) translate(4 207)">
<title>dependencies</title>
<polygon fill="white" stroke="transparent" points="-4,4 -4,-207 1761,-207 1761,4 -4,4"/>
<text text-anchor="start" x="857.51" y="-42.4" font-family="Times-12" font-weight="bold" font-size="14.00">Legend</text>
<polygon fill="#ffffb3" stroke="transparent" points="644.5,-10 644.5,-30 664.5,-30 664.5,-10 644.5,-10"/>
<text text-anchor="start" x="668.13" y="-15.4" font-family="Times-12" font-size="14.00"> &#160;Declarations</text>
<polygon fill="#8dd3c7" stroke="transparent" points="757.5,-10 757.5,-30 777.5,-30 777.5,-10 757.5,-10"/>
<text text-anchor="start" x="781.23" y="-15.4" font-family="Times-12" font-size="14.00"> &#160;Module</text>
<polygon fill="#80b1d3" stroke="transparent" points="843.5,-10 843.5,-30 863.5,-30 863.5,-10 843.5,-10"/>
<text text-anchor="start" x="867.28" y="-15.4" font-family="Times-12" font-size="14.00"> &#160;Bootstrap</text>
<polygon fill="#fdb462" stroke="transparent" points="940.5,-10 940.5,-30 960.5,-30 960.5,-10 940.5,-10"/>
<text text-anchor="start" x="964.17" y="-15.4" font-family="Times-12" font-size="14.00"> &#160;Providers</text>
<polygon fill="#fb8072" stroke="transparent" points="1036.5,-10 1036.5,-30 1056.5,-30 1056.5,-10 1036.5,-10"/>
<text text-anchor="start" x="1060.23" y="-15.4" font-family="Times-12" font-size="14.00"> &#160;Exports</text>
<g id="clust1" class="cluster">
<title>cluster_AppModule</title>
<polygon fill="none" stroke="black" stroke-dasharray="1,5" points="8,-70 8,-195 1749,-195 1749,-70 8,-70"/>
</g>
<g id="clust6" class="cluster">
<title>cluster_AppModule_providers</title>
<polygon fill="none" stroke="black" points="1457,-78 1457,-130 1741,-130 1741,-78 1457,-78"/>
</g>
<g id="clust3" class="cluster">
<title>cluster_AppModule_imports</title>
<polygon fill="none" stroke="black" points="16,-78 16,-130 1449,-130 1449,-78 16,-78"/>
</g>
<!-- BoardModule -->
<g id="node1" class="node">
<title>BoardModule</title>
<polygon fill="#8dd3c7" stroke="black" points="1440.76,-122 1437.76,-126 1416.76,-126 1413.76,-122 1347.24,-122 1347.24,-86 1440.76,-86 1440.76,-122"/>
<text text-anchor="middle" x="1394" y="-99.8" font-family="Times,serif" font-size="14.00">BoardModule</text>
</g>
<!-- AppModule -->
<g id="node11" class="node">
<title>AppModule</title>
<polygon fill="#8dd3c7" stroke="black" points="918.66,-187 915.66,-191 894.66,-191 891.66,-187 835.34,-187 835.34,-151 918.66,-151 918.66,-187"/>
<text text-anchor="middle" x="877" y="-164.8" font-family="Times,serif" font-size="14.00">AppModule</text>
</g>
<!-- BoardModule&#45;&gt;AppModule -->
<g id="edge1" class="edge">
<title>BoardModule&#45;&gt;AppModule</title>
<path fill="none" stroke="black" d="M1394,-122.11C1394,-141.34 1394,-169 1394,-169 1394,-169 928.87,-169 928.87,-169"/>
<polygon fill="black" stroke="black" points="928.87,-165.5 918.87,-169 928.87,-172.5 928.87,-165.5"/>
</g>
<!-- BoardToMemberModule -->
<g id="node2" class="node">
<title>BoardToMemberModule</title>
<polygon fill="#8dd3c7" stroke="black" points="1329.24,-122 1326.24,-126 1305.24,-126 1302.24,-122 1172.76,-122 1172.76,-86 1329.24,-86 1329.24,-122"/>
<text text-anchor="middle" x="1251" y="-99.8" font-family="Times,serif" font-size="14.00">BoardToMemberModule</text>
</g>
<!-- BoardToMemberModule&#45;&gt;AppModule -->
<g id="edge2" class="edge">
<title>BoardToMemberModule&#45;&gt;AppModule</title>
<path fill="none" stroke="black" d="M1251,-122.02C1251,-139.37 1251,-163 1251,-163 1251,-163 928.81,-163 928.81,-163"/>
<polygon fill="black" stroke="black" points="928.81,-159.5 918.81,-163 928.81,-166.5 928.81,-159.5"/>
</g>
<!-- CadenceModule -->
<g id="node3" class="node">
<title>CadenceModule</title>
<polygon fill="#8dd3c7" stroke="black" points="1154.75,-122 1151.75,-126 1130.75,-126 1127.75,-122 1047.25,-122 1047.25,-86 1154.75,-86 1154.75,-122"/>
<text text-anchor="middle" x="1101" y="-99.8" font-family="Times,serif" font-size="14.00">CadenceModule</text>
</g>
<!-- CadenceModule&#45;&gt;AppModule -->
<g id="edge3" class="edge">
<title>CadenceModule&#45;&gt;AppModule</title>
<path fill="none" stroke="black" d="M1101,-122.24C1101,-137.57 1101,-157 1101,-157 1101,-157 928.87,-157 928.87,-157"/>
<polygon fill="black" stroke="black" points="928.87,-153.5 918.87,-157 928.87,-160.5 928.87,-153.5"/>
</g>
<!-- CoordinatorModule -->
<g id="node4" class="node">
<title>CoordinatorModule</title>
<polygon fill="#8dd3c7" stroke="black" points="1029.7,-122 1026.7,-126 1005.7,-126 1002.7,-122 902.3,-122 902.3,-86 1029.7,-86 1029.7,-122"/>
<text text-anchor="middle" x="966" y="-99.8" font-family="Times,serif" font-size="14.00">CoordinatorModule</text>
</g>
<!-- CoordinatorModule&#45;&gt;AppModule -->
<g id="edge4" class="edge">
<title>CoordinatorModule&#45;&gt;AppModule</title>
<path fill="none" stroke="black" d="M910.61,-122.11C910.61,-122.11 910.61,-140.99 910.61,-140.99"/>
<polygon fill="black" stroke="black" points="907.11,-140.99 910.61,-150.99 914.11,-140.99 907.11,-140.99"/>
</g>
<!-- CoordinatorToMemberModule -->
<g id="node5" class="node">
<title>CoordinatorToMemberModule</title>
<polygon fill="#8dd3c7" stroke="black" points="884.18,-122 881.18,-126 860.18,-126 857.18,-122 693.82,-122 693.82,-86 884.18,-86 884.18,-122"/>
<text text-anchor="middle" x="789" y="-99.8" font-family="Times,serif" font-size="14.00">CoordinatorToMemberModule</text>
</g>
<!-- CoordinatorToMemberModule&#45;&gt;AppModule -->
<g id="edge5" class="edge">
<title>CoordinatorToMemberModule&#45;&gt;AppModule</title>
<path fill="none" stroke="black" d="M859.63,-122.11C859.63,-122.11 859.63,-140.99 859.63,-140.99"/>
<polygon fill="black" stroke="black" points="856.13,-140.99 859.63,-150.99 863.13,-140.99 856.13,-140.99"/>
</g>
<!-- DatabaseModule -->
<g id="node6" class="node">
<title>DatabaseModule</title>
<polygon fill="#8dd3c7" stroke="black" points="675.35,-122 672.35,-126 651.35,-126 648.35,-122 564.65,-122 564.65,-86 675.35,-86 675.35,-122"/>
<text text-anchor="middle" x="620" y="-99.8" font-family="Times,serif" font-size="14.00">DatabaseModule</text>
</g>
<!-- DatabaseModule&#45;&gt;AppModule -->
<g id="edge6" class="edge">
<title>DatabaseModule&#45;&gt;AppModule</title>
<path fill="none" stroke="black" d="M620,-122.24C620,-137.57 620,-157 620,-157 620,-157 825.14,-157 825.14,-157"/>
<polygon fill="black" stroke="black" points="825.14,-160.5 835.14,-157 825.14,-153.5 825.14,-160.5"/>
</g>
<!-- MeetingModule -->
<g id="node7" class="node">
<title>MeetingModule</title>
<polygon fill="#8dd3c7" stroke="black" points="546.2,-122 543.2,-126 522.2,-126 519.2,-122 439.8,-122 439.8,-86 546.2,-86 546.2,-122"/>
<text text-anchor="middle" x="493" y="-99.8" font-family="Times,serif" font-size="14.00">MeetingModule</text>
</g>
<!-- MeetingModule&#45;&gt;AppModule -->
<g id="edge7" class="edge">
<title>MeetingModule&#45;&gt;AppModule</title>
<path fill="none" stroke="black" d="M493,-122.02C493,-139.37 493,-163 493,-163 493,-163 825.17,-163 825.17,-163"/>
<polygon fill="black" stroke="black" points="825.17,-166.5 835.17,-163 825.17,-159.5 825.17,-166.5"/>
</g>
<!-- MemberModule -->
<g id="node8" class="node">
<title>MemberModule</title>
<polygon fill="#8dd3c7" stroke="black" points="421.47,-122 418.47,-126 397.47,-126 394.47,-122 314.53,-122 314.53,-86 421.47,-86 421.47,-122"/>
<text text-anchor="middle" x="368" y="-99.8" font-family="Times,serif" font-size="14.00">MemberModule</text>
</g>
<!-- MemberModule&#45;&gt;AppModule -->
<g id="edge8" class="edge">
<title>MemberModule&#45;&gt;AppModule</title>
<path fill="none" stroke="black" d="M368,-122.11C368,-141.34 368,-169 368,-169 368,-169 824.91,-169 824.91,-169"/>
<polygon fill="black" stroke="black" points="824.91,-172.5 834.91,-169 824.91,-165.5 824.91,-172.5"/>
</g>
<!-- MembershipModule -->
<g id="node9" class="node">
<title>MembershipModule</title>
<polygon fill="#8dd3c7" stroke="black" points="296.31,-122 293.31,-126 272.31,-126 269.31,-122 165.69,-122 165.69,-86 296.31,-86 296.31,-122"/>
<text text-anchor="middle" x="231" y="-99.8" font-family="Times,serif" font-size="14.00">MembershipModule</text>
</g>
<!-- MembershipModule&#45;&gt;AppModule -->
<g id="edge9" class="edge">
<title>MembershipModule&#45;&gt;AppModule</title>
<path fill="none" stroke="black" d="M231,-122.28C231,-143.32 231,-175 231,-175 231,-175 825.11,-175 825.11,-175"/>
<polygon fill="black" stroke="black" points="825.11,-178.5 835.11,-175 825.11,-171.5 825.11,-178.5"/>
</g>
<!-- TranslationModule -->
<g id="node10" class="node">
<title>TranslationModule</title>
<polygon fill="#8dd3c7" stroke="black" points="147.81,-122 144.81,-126 123.81,-126 120.81,-122 24.19,-122 24.19,-86 147.81,-86 147.81,-122"/>
<text text-anchor="middle" x="86" y="-99.8" font-family="Times,serif" font-size="14.00">TranslationModule</text>
</g>
<!-- TranslationModule&#45;&gt;AppModule -->
<g id="edge10" class="edge">
<title>TranslationModule&#45;&gt;AppModule</title>
<path fill="none" stroke="black" d="M86,-122.09C86,-145.13 86,-182 86,-182 86,-182 825.31,-182 825.31,-182"/>
<polygon fill="black" stroke="black" points="825.31,-185.5 835.31,-182 825.31,-178.5 825.31,-185.5"/>
</g>
<!-- AppDbService -->
<g id="node12" class="node">
<title>AppDbService</title>
<ellipse fill="#fdb462" stroke="black" cx="1665" cy="-104" rx="68.34" ry="18"/>
<text text-anchor="middle" x="1665" y="-99.8" font-family="Times,serif" font-size="14.00">AppDbService</text>
</g>
<!-- AppDbService&#45;&gt;AppModule -->
<g id="edge11" class="edge">
<title>AppDbService&#45;&gt;AppModule</title>
<path fill="none" stroke="black" d="M1665,-122.09C1665,-145.13 1665,-182 1665,-182 1665,-182 928.81,-182 928.81,-182"/>
<polygon fill="black" stroke="black" points="928.81,-178.5 918.81,-182 928.81,-185.5 928.81,-178.5"/>
</g>
<!-- AppService -->
<g id="node13" class="node">
<title>AppService</title>
<ellipse fill="#fdb462" stroke="black" cx="1522" cy="-104" rx="56.74" ry="18"/>
<text text-anchor="middle" x="1522" y="-99.8" font-family="Times,serif" font-size="14.00">AppService</text>
</g>
<!-- AppService&#45;&gt;AppModule -->
<g id="edge12" class="edge">
<title>AppService&#45;&gt;AppModule</title>
<path fill="none" stroke="black" d="M1522,-122.28C1522,-143.32 1522,-175 1522,-175 1522,-175 928.82,-175 928.82,-175"/>
<polygon fill="black" stroke="black" points="928.82,-171.5 918.82,-175 928.82,-178.5 928.82,-171.5"/>
</g>
</g>
</svg>
