<?xml version="1.0" encoding="UTF-8" standalone="no"?>
<!DOCTYPE svg PUBLIC "-//W3C//DTD SVG 1.1//EN"
 "http://www.w3.org/Graphics/SVG/1.1/DTD/svg11.dtd">
<!-- Generated by graphviz version 2.47.0 (20210316.0004)
 -->
<!-- Title: dependencies Pages: 1 -->
<svg width="741pt" height="211pt"
 viewBox="0.00 0.00 741.00 211.00" xmlns="http://www.w3.org/2000/svg" xmlns:xlink="http://www.w3.org/1999/xlink">
<g id="graph0" class="graph" transform="scale(1 1) rotate(0) translate(4 207)">
<title>dependencies</title>
<polygon fill="white" stroke="transparent" points="-4,4 -4,-207 737,-207 737,4 -4,4"/>
<text text-anchor="start" x="345.51" y="-42.4" font-family="Times-12" font-weight="bold" font-size="14.00">Legend</text>
<polygon fill="#ffffb3" stroke="transparent" points="132.5,-10 132.5,-30 152.5,-30 152.5,-10 132.5,-10"/>
<text text-anchor="start" x="156.13" y="-15.4" font-family="Times-12" font-size="14.00"> &#160;Declarations</text>
<polygon fill="#8dd3c7" stroke="transparent" points="245.5,-10 245.5,-30 265.5,-30 265.5,-10 245.5,-10"/>
<text text-anchor="start" x="269.23" y="-15.4" font-family="Times-12" font-size="14.00"> &#160;Module</text>
<polygon fill="#80b1d3" stroke="transparent" points="331.5,-10 331.5,-30 351.5,-30 351.5,-10 331.5,-10"/>
<text text-anchor="start" x="355.28" y="-15.4" font-family="Times-12" font-size="14.00"> &#160;Bootstrap</text>
<polygon fill="#fdb462" stroke="transparent" points="428.5,-10 428.5,-30 448.5,-30 448.5,-10 428.5,-10"/>
<text text-anchor="start" x="452.17" y="-15.4" font-family="Times-12" font-size="14.00"> &#160;Providers</text>
<polygon fill="#fb8072" stroke="transparent" points="524.5,-10 524.5,-30 544.5,-30 544.5,-10 524.5,-10"/>
<text text-anchor="start" x="548.23" y="-15.4" font-family="Times-12" font-size="14.00"> &#160;Exports</text>
<g id="clust1" class="cluster">
<title>cluster_MembershipModule</title>
<polygon fill="none" stroke="black" stroke-dasharray="1,5" points="8,-70 8,-195 725,-195 725,-70 8,-70"/>
</g>
<g id="clust3" class="cluster">
<title>cluster_MembershipModule_imports</title>
<polygon fill="none" stroke="black" points="591,-78 591,-130 717,-130 717,-78 591,-78"/>
</g>
<g id="clust6" class="cluster">
<title>cluster_MembershipModule_providers</title>
<polygon fill="none" stroke="black" points="16,-78 16,-130 583,-130 583,-78 16,-78"/>
</g>
<!-- DatabaseModule -->
<g id="node1" class="node">
<title>DatabaseModule</title>
<polygon fill="#8dd3c7" stroke="black" points="709.35,-122 706.35,-126 685.35,-126 682.35,-122 598.65,-122 598.65,-86 709.35,-86 709.35,-122"/>
<text text-anchor="middle" x="654" y="-99.8" font-family="Times,serif" font-size="14.00">DatabaseModule</text>
</g>
<!-- MembershipModule -->
<g id="node2" class="node">
<title>MembershipModule</title>
<polygon fill="#8dd3c7" stroke="black" points="478.31,-187 475.31,-191 454.31,-191 451.31,-187 347.69,-187 347.69,-151 478.31,-151 478.31,-187"/>
<text text-anchor="middle" x="413" y="-164.8" font-family="Times,serif" font-size="14.00">MembershipModule</text>
</g>
<!-- DatabaseModule&#45;&gt;MembershipModule -->
<g id="edge1" class="edge">
<title>DatabaseModule&#45;&gt;MembershipModule</title>
<path fill="none" stroke="black" d="M654,-122.11C654,-141.34 654,-169 654,-169 654,-169 488.22,-169 488.22,-169"/>
<polygon fill="black" stroke="black" points="488.22,-165.5 478.22,-169 488.22,-172.5 488.22,-165.5"/>
</g>
<!-- AppDbService -->
<g id="node3" class="node">
<title>AppDbService</title>
<ellipse fill="#fdb462" stroke="black" cx="507" cy="-104" rx="68.34" ry="18"/>
<text text-anchor="middle" x="507" y="-99.8" font-family="Times,serif" font-size="14.00">AppDbService</text>
</g>
<!-- AppDbService&#45;&gt;MembershipModule -->
<g id="edge2" class="edge">
<title>AppDbService&#45;&gt;MembershipModule</title>
<path fill="none" stroke="black" d="M458.37,-116.84C458.37,-116.84 458.37,-140.52 458.37,-140.52"/>
<polygon fill="black" stroke="black" points="454.87,-140.52 458.37,-150.52 461.87,-140.52 454.87,-140.52"/>
</g>
<!-- MembershipDbService -->
<g id="node4" class="node">
<title>MembershipDbService</title>
<ellipse fill="#fdb462" stroke="black" cx="320" cy="-104" rx="100.7" ry="18"/>
<text text-anchor="middle" x="320" y="-99.8" font-family="Times,serif" font-size="14.00">MembershipDbService</text>
</g>
<!-- MembershipDbService&#45;&gt;MembershipModule -->
<g id="edge3" class="edge">
<title>MembershipDbService&#45;&gt;MembershipModule</title>
<path fill="none" stroke="black" d="M384.22,-118.1C384.22,-118.1 384.22,-140.72 384.22,-140.72"/>
<polygon fill="black" stroke="black" points="380.72,-140.72 384.22,-150.72 387.72,-140.72 380.72,-140.72"/>
</g>
<!-- MembershipService -->
<g id="node5" class="node">
<title>MembershipService</title>
<ellipse fill="#fdb462" stroke="black" cx="113" cy="-104" rx="88.6" ry="18"/>
<text text-anchor="middle" x="113" y="-99.8" font-family="Times,serif" font-size="14.00">MembershipService</text>
</g>
<!-- MembershipService&#45;&gt;MembershipModule -->
<g id="edge4" class="edge">
<title>MembershipService&#45;&gt;MembershipModule</title>
<path fill="none" stroke="black" d="M113,-122.11C113,-141.34 113,-169 113,-169 113,-169 337.53,-169 337.53,-169"/>
<polygon fill="black" stroke="black" points="337.53,-172.5 347.53,-169 337.53,-165.5 337.53,-172.5"/>
</g>
</g>
</svg>
