<?xml version="1.0" encoding="UTF-8" standalone="no"?>
<!DOCTYPE svg PUBLIC "-//W3C//DTD SVG 1.1//EN"
 "http://www.w3.org/Graphics/SVG/1.1/DTD/svg11.dtd">
<!-- Generated by graphviz version 2.47.0 (20210316.0004)
 -->
<!-- Title: dependencies Pages: 1 -->
<svg width="678pt" height="211pt"
 viewBox="0.00 0.00 678.00 211.00" xmlns="http://www.w3.org/2000/svg" xmlns:xlink="http://www.w3.org/1999/xlink">
<g id="graph0" class="graph" transform="scale(1 1) rotate(0) translate(4 207)">
<title>dependencies</title>
<polygon fill="white" stroke="transparent" points="-4,4 -4,-207 674,-207 674,4 -4,4"/>
<text text-anchor="start" x="314.01" y="-42.4" font-family="Times-12" font-weight="bold" font-size="14.00">Legend</text>
<polygon fill="#ffffb3" stroke="transparent" points="101,-10 101,-30 121,-30 121,-10 101,-10"/>
<text text-anchor="start" x="124.63" y="-15.4" font-family="Times-12" font-size="14.00"> &#160;Declarations</text>
<polygon fill="#8dd3c7" stroke="transparent" points="214,-10 214,-30 234,-30 234,-10 214,-10"/>
<text text-anchor="start" x="237.73" y="-15.4" font-family="Times-12" font-size="14.00"> &#160;Module</text>
<polygon fill="#80b1d3" stroke="transparent" points="300,-10 300,-30 320,-30 320,-10 300,-10"/>
<text text-anchor="start" x="323.78" y="-15.4" font-family="Times-12" font-size="14.00"> &#160;Bootstrap</text>
<polygon fill="#fdb462" stroke="transparent" points="397,-10 397,-30 417,-30 417,-10 397,-10"/>
<text text-anchor="start" x="420.67" y="-15.4" font-family="Times-12" font-size="14.00"> &#160;Providers</text>
<polygon fill="#fb8072" stroke="transparent" points="493,-10 493,-30 513,-30 513,-10 493,-10"/>
<text text-anchor="start" x="516.73" y="-15.4" font-family="Times-12" font-size="14.00"> &#160;Exports</text>
<g id="clust1" class="cluster">
<title>cluster_CadenceModule</title>
<polygon fill="none" stroke="black" stroke-dasharray="1,5" points="8,-70 8,-195 662,-195 662,-70 8,-70"/>
</g>
<g id="clust3" class="cluster">
<title>cluster_CadenceModule_imports</title>
<polygon fill="none" stroke="black" points="528,-78 528,-130 654,-130 654,-78 528,-78"/>
</g>
<g id="clust6" class="cluster">
<title>cluster_CadenceModule_providers</title>
<polygon fill="none" stroke="black" points="16,-78 16,-130 520,-130 520,-78 16,-78"/>
</g>
<!-- DatabaseModule -->
<g id="node1" class="node">
<title>DatabaseModule</title>
<polygon fill="#8dd3c7" stroke="black" points="646.35,-122 643.35,-126 622.35,-126 619.35,-122 535.65,-122 535.65,-86 646.35,-86 646.35,-122"/>
<text text-anchor="middle" x="591" y="-99.8" font-family="Times,serif" font-size="14.00">DatabaseModule</text>
</g>
<!-- CadenceModule -->
<g id="node2" class="node">
<title>CadenceModule</title>
<polygon fill="#8dd3c7" stroke="black" points="411.75,-187 408.75,-191 387.75,-191 384.75,-187 304.25,-187 304.25,-151 411.75,-151 411.75,-187"/>
<text text-anchor="middle" x="358" y="-164.8" font-family="Times,serif" font-size="14.00">CadenceModule</text>
</g>
<!-- DatabaseModule&#45;&gt;CadenceModule -->
<g id="edge1" class="edge">
<title>DatabaseModule&#45;&gt;CadenceModule</title>
<path fill="none" stroke="black" d="M591,-122.11C591,-141.34 591,-169 591,-169 591,-169 421.75,-169 421.75,-169"/>
<polygon fill="black" stroke="black" points="421.75,-165.5 411.75,-169 421.75,-172.5 421.75,-165.5"/>
</g>
<!-- AppDbService -->
<g id="node3" class="node">
<title>AppDbService</title>
<ellipse fill="#fdb462" stroke="black" cx="444" cy="-104" rx="68.34" ry="18"/>
<text text-anchor="middle" x="444" y="-99.8" font-family="Times,serif" font-size="14.00">AppDbService</text>
</g>
<!-- AppDbService&#45;&gt;CadenceModule -->
<g id="edge2" class="edge">
<title>AppDbService&#45;&gt;CadenceModule</title>
<path fill="none" stroke="black" d="M393.73,-116.23C393.73,-116.23 393.73,-140.68 393.73,-140.68"/>
<polygon fill="black" stroke="black" points="390.23,-140.68 393.73,-150.68 397.23,-140.68 390.23,-140.68"/>
</g>
<!-- CadenceDbService -->
<g id="node4" class="node">
<title>CadenceDbService</title>
<ellipse fill="#fdb462" stroke="black" cx="273" cy="-104" rx="85.07" ry="18"/>
<text text-anchor="middle" x="273" y="-99.8" font-family="Times,serif" font-size="14.00">CadenceDbService</text>
</g>
<!-- CadenceDbService&#45;&gt;CadenceModule -->
<g id="edge3" class="edge">
<title>CadenceDbService&#45;&gt;CadenceModule</title>
<path fill="none" stroke="black" d="M331.08,-117.15C331.08,-117.15 331.08,-140.69 331.08,-140.69"/>
<polygon fill="black" stroke="black" points="327.58,-140.69 331.08,-150.69 334.58,-140.69 327.58,-140.69"/>
</g>
<!-- CadenceService -->
<g id="node5" class="node">
<title>CadenceService</title>
<ellipse fill="#fdb462" stroke="black" cx="97" cy="-104" rx="73.47" ry="18"/>
<text text-anchor="middle" x="97" y="-99.8" font-family="Times,serif" font-size="14.00">CadenceService</text>
</g>
<!-- CadenceService&#45;&gt;CadenceModule -->
<g id="edge4" class="edge">
<title>CadenceService&#45;&gt;CadenceModule</title>
<path fill="none" stroke="black" d="M97,-122.11C97,-141.34 97,-169 97,-169 97,-169 294.24,-169 294.24,-169"/>
<polygon fill="black" stroke="black" points="294.24,-172.5 304.24,-169 294.24,-165.5 294.24,-172.5"/>
</g>
</g>
</svg>
