<?xml version="1.0" encoding="UTF-8" standalone="no"?>
<!DOCTYPE svg PUBLIC "-//W3C//DTD SVG 1.1//EN"
 "http://www.w3.org/Graphics/SVG/1.1/DTD/svg11.dtd">
<!-- Generated by graphviz version 2.47.0 (20210316.0004)
 -->
<!-- Title: dependencies Pages: 1 -->
<svg width="677pt" height="211pt"
 viewBox="0.00 0.00 677.00 211.00" xmlns="http://www.w3.org/2000/svg" xmlns:xlink="http://www.w3.org/1999/xlink">
<g id="graph0" class="graph" transform="scale(1 1) rotate(0) translate(4 207)">
<title>dependencies</title>
<polygon fill="white" stroke="transparent" points="-4,4 -4,-207 673,-207 673,4 -4,4"/>
<text text-anchor="start" x="313.51" y="-42.4" font-family="Times-12" font-weight="bold" font-size="14.00">Legend</text>
<polygon fill="#ffffb3" stroke="transparent" points="100.5,-10 100.5,-30 120.5,-30 120.5,-10 100.5,-10"/>
<text text-anchor="start" x="124.13" y="-15.4" font-family="Times-12" font-size="14.00"> &#160;Declarations</text>
<polygon fill="#8dd3c7" stroke="transparent" points="213.5,-10 213.5,-30 233.5,-30 233.5,-10 213.5,-10"/>
<text text-anchor="start" x="237.23" y="-15.4" font-family="Times-12" font-size="14.00"> &#160;Module</text>
<polygon fill="#80b1d3" stroke="transparent" points="299.5,-10 299.5,-30 319.5,-30 319.5,-10 299.5,-10"/>
<text text-anchor="start" x="323.28" y="-15.4" font-family="Times-12" font-size="14.00"> &#160;Bootstrap</text>
<polygon fill="#fdb462" stroke="transparent" points="396.5,-10 396.5,-30 416.5,-30 416.5,-10 396.5,-10"/>
<text text-anchor="start" x="420.17" y="-15.4" font-family="Times-12" font-size="14.00"> &#160;Providers</text>
<polygon fill="#fb8072" stroke="transparent" points="492.5,-10 492.5,-30 512.5,-30 512.5,-10 492.5,-10"/>
<text text-anchor="start" x="516.23" y="-15.4" font-family="Times-12" font-size="14.00"> &#160;Exports</text>
<g id="clust1" class="cluster">
<title>cluster_MemberModule</title>
<polygon fill="none" stroke="black" stroke-dasharray="1,5" points="8,-70 8,-195 661,-195 661,-70 8,-70"/>
</g>
<g id="clust3" class="cluster">
<title>cluster_MemberModule_imports</title>
<polygon fill="none" stroke="black" points="527,-78 527,-130 653,-130 653,-78 527,-78"/>
</g>
<g id="clust6" class="cluster">
<title>cluster_MemberModule_providers</title>
<polygon fill="none" stroke="black" points="16,-78 16,-130 519,-130 519,-78 16,-78"/>
</g>
<!-- DatabaseModule -->
<g id="node1" class="node">
<title>DatabaseModule</title>
<polygon fill="#8dd3c7" stroke="black" points="645.35,-122 642.35,-126 621.35,-126 618.35,-122 534.65,-122 534.65,-86 645.35,-86 645.35,-122"/>
<text text-anchor="middle" x="590" y="-99.8" font-family="Times,serif" font-size="14.00">DatabaseModule</text>
</g>
<!-- MemberModule -->
<g id="node2" class="node">
<title>MemberModule</title>
<polygon fill="#8dd3c7" stroke="black" points="410.47,-187 407.47,-191 386.47,-191 383.47,-187 303.53,-187 303.53,-151 410.47,-151 410.47,-187"/>
<text text-anchor="middle" x="357" y="-164.8" font-family="Times,serif" font-size="14.00">MemberModule</text>
</g>
<!-- DatabaseModule&#45;&gt;MemberModule -->
<g id="edge1" class="edge">
<title>DatabaseModule&#45;&gt;MemberModule</title>
<path fill="none" stroke="black" d="M590,-122.11C590,-141.34 590,-169 590,-169 590,-169 420.75,-169 420.75,-169"/>
<polygon fill="black" stroke="black" points="420.75,-165.5 410.75,-169 420.75,-172.5 420.75,-165.5"/>
</g>
<!-- AppDbService -->
<g id="node3" class="node">
<title>AppDbService</title>
<ellipse fill="#fdb462" stroke="black" cx="443" cy="-104" rx="68.34" ry="18"/>
<text text-anchor="middle" x="443" y="-99.8" font-family="Times,serif" font-size="14.00">AppDbService</text>
</g>
<!-- AppDbService&#45;&gt;MemberModule -->
<g id="edge2" class="edge">
<title>AppDbService&#45;&gt;MemberModule</title>
<path fill="none" stroke="black" d="M392.53,-116.23C392.53,-116.23 392.53,-140.68 392.53,-140.68"/>
<polygon fill="black" stroke="black" points="389.03,-140.68 392.53,-150.68 396.03,-140.68 389.03,-140.68"/>
</g>
<!-- MemberDbService -->
<g id="node4" class="node">
<title>MemberDbService</title>
<ellipse fill="#fdb462" stroke="black" cx="272" cy="-104" rx="84.51" ry="18"/>
<text text-anchor="middle" x="272" y="-99.8" font-family="Times,serif" font-size="14.00">MemberDbService</text>
</g>
<!-- MemberDbService&#45;&gt;MemberModule -->
<g id="edge3" class="edge">
<title>MemberDbService&#45;&gt;MemberModule</title>
<path fill="none" stroke="black" d="M330.01,-117.15C330.01,-117.15 330.01,-140.69 330.01,-140.69"/>
<polygon fill="black" stroke="black" points="326.51,-140.69 330.01,-150.69 333.51,-140.69 326.51,-140.69"/>
</g>
<!-- MemberService -->
<g id="node5" class="node">
<title>MemberService</title>
<ellipse fill="#fdb462" stroke="black" cx="97" cy="-104" rx="72.91" ry="18"/>
<text text-anchor="middle" x="97" y="-99.8" font-family="Times,serif" font-size="14.00">MemberService</text>
</g>
<!-- MemberService&#45;&gt;MemberModule -->
<g id="edge4" class="edge">
<title>MemberService&#45;&gt;MemberModule</title>
<path fill="none" stroke="black" d="M97,-122.11C97,-141.34 97,-169 97,-169 97,-169 293.44,-169 293.44,-169"/>
<polygon fill="black" stroke="black" points="293.44,-172.5 303.44,-169 293.44,-165.5 293.44,-172.5"/>
</g>
</g>
</svg>
