<?xml version="1.0" encoding="UTF-8" standalone="no"?>
<!DOCTYPE svg PUBLIC "-//W3C//DTD SVG 1.1//EN"
 "http://www.w3.org/Graphics/SVG/1.1/DTD/svg11.dtd">
<!-- Generated by graphviz version 2.47.0 (20210316.0004)
 -->
<!-- Title: dependencies Pages: 1 -->
<svg width="5809pt" height="287pt"
 viewBox="0.00 0.00 5809.00 287.00" xmlns="http://www.w3.org/2000/svg" xmlns:xlink="http://www.w3.org/1999/xlink">
<g id="graph0" class="graph" transform="scale(1 1) rotate(0) translate(4 283)">
<title>dependencies</title>
<polygon fill="white" stroke="transparent" points="-4,4 -4,-283 5805,-283 5805,4 -4,4"/>
<text text-anchor="start" x="2879.51" y="-42.4" font-family="Times-12" font-weight="bold" font-size="14.00">Legend</text>
<polygon fill="#ffffb3" stroke="transparent" points="2666.5,-10 2666.5,-30 2686.5,-30 2686.5,-10 2666.5,-10"/>
<text text-anchor="start" x="2690.13" y="-15.4" font-family="Times-12" font-size="14.00"> &#160;Declarations</text>
<polygon fill="#8dd3c7" stroke="transparent" points="2779.5,-10 2779.5,-30 2799.5,-30 2799.5,-10 2779.5,-10"/>
<text text-anchor="start" x="2803.23" y="-15.4" font-family="Times-12" font-size="14.00"> &#160;Module</text>
<polygon fill="#80b1d3" stroke="transparent" points="2865.5,-10 2865.5,-30 2885.5,-30 2885.5,-10 2865.5,-10"/>
<text text-anchor="start" x="2889.28" y="-15.4" font-family="Times-12" font-size="14.00"> &#160;Bootstrap</text>
<polygon fill="#fdb462" stroke="transparent" points="2962.5,-10 2962.5,-30 2982.5,-30 2982.5,-10 2962.5,-10"/>
<text text-anchor="start" x="2986.17" y="-15.4" font-family="Times-12" font-size="14.00"> &#160;Providers</text>
<polygon fill="#fb8072" stroke="transparent" points="3058.5,-10 3058.5,-30 3078.5,-30 3078.5,-10 3058.5,-10"/>
<text text-anchor="start" x="3082.23" y="-15.4" font-family="Times-12" font-size="14.00"> &#160;Exports</text>
<g id="clust1" class="cluster">
<title>cluster_AppModule</title>
<polygon fill="none" stroke="black" stroke-dasharray="1,5" points="3856,-70 3856,-271 5467,-271 5467,-70 3856,-70"/>
</g>
<g id="clust3" class="cluster">
<title>cluster_AppModule_imports</title>
<polygon fill="none" stroke="black" points="3864,-78 3864,-206 5167,-206 5167,-78 3864,-78"/>
</g>
<g id="clust6" class="cluster">
<title>cluster_AppModule_providers</title>
<polygon fill="none" stroke="black" points="5175,-78 5175,-130 5459,-130 5459,-78 5175,-78"/>
</g>
<g id="clust7" class="cluster">
<title>cluster_BoardModule</title>
<polygon fill="none" stroke="black" stroke-dasharray="1,5" points="8,-70 8,-138 336,-138 336,-70 8,-70"/>
</g>
<g id="clust12" class="cluster">
<title>cluster_BoardModule_providers</title>
<polygon fill="none" stroke="black" points="16,-78 16,-130 328,-130 328,-78 16,-78"/>
</g>
<g id="clust13" class="cluster">
<title>cluster_BoardToMemberModule</title>
<polygon fill="none" stroke="black" stroke-dasharray="1,5" points="344,-70 344,-138 846,-138 846,-70 344,-70"/>
</g>
<g id="clust18" class="cluster">
<title>cluster_BoardToMemberModule_providers</title>
<polygon fill="none" stroke="black" points="352,-78 352,-130 838,-130 838,-78 352,-78"/>
</g>
<g id="clust19" class="cluster">
<title>cluster_CadenceModule</title>
<polygon fill="none" stroke="black" stroke-dasharray="1,5" points="854,-70 854,-138 1220,-138 1220,-70 854,-70"/>
</g>
<g id="clust24" class="cluster">
<title>cluster_CadenceModule_providers</title>
<polygon fill="none" stroke="black" points="862,-78 862,-130 1212,-130 1212,-78 862,-78"/>
</g>
<g id="clust25" class="cluster">
<title>cluster_CoordinatorModule</title>
<polygon fill="none" stroke="black" stroke-dasharray="1,5" points="1228,-70 1228,-138 1648,-138 1648,-70 1228,-70"/>
</g>
<g id="clust30" class="cluster">
<title>cluster_CoordinatorModule_providers</title>
<polygon fill="none" stroke="black" points="1236,-78 1236,-130 1640,-130 1640,-78 1236,-78"/>
</g>
<g id="clust31" class="cluster">
<title>cluster_CoordinatorToMemberModule</title>
<polygon fill="none" stroke="black" stroke-dasharray="1,5" points="1656,-70 1656,-138 2250,-138 2250,-70 1656,-70"/>
</g>
<g id="clust36" class="cluster">
<title>cluster_CoordinatorToMemberModule_providers</title>
<polygon fill="none" stroke="black" points="1664,-78 1664,-130 2242,-130 2242,-78 1664,-78"/>
</g>
<g id="clust37" class="cluster">
<title>cluster_DatabaseModule</title>
<polygon fill="none" stroke="black" stroke-dasharray="1,5" points="5475,-146 5475,-214 5793,-214 5793,-146 5475,-146"/>
</g>
<g id="clust40" class="cluster">
<title>cluster_DatabaseModule_exports</title>
<polygon fill="none" stroke="black" points="5657,-154 5657,-206 5785,-206 5785,-154 5657,-154"/>
</g>
<g id="clust42" class="cluster">
<title>cluster_DatabaseModule_providers</title>
<polygon fill="none" stroke="black" points="5483,-154 5483,-206 5649,-206 5649,-154 5483,-154"/>
</g>
<g id="clust43" class="cluster">
<title>cluster_MeetingModule</title>
<polygon fill="none" stroke="black" stroke-dasharray="1,5" points="2258,-70 2258,-138 2620,-138 2620,-70 2258,-70"/>
</g>
<g id="clust48" class="cluster">
<title>cluster_MeetingModule_providers</title>
<polygon fill="none" stroke="black" points="2266,-78 2266,-130 2612,-130 2612,-78 2266,-78"/>
</g>
<g id="clust49" class="cluster">
<title>cluster_MemberModule</title>
<polygon fill="none" stroke="black" stroke-dasharray="1,5" points="2628,-70 2628,-138 2993,-138 2993,-70 2628,-70"/>
</g>
<g id="clust54" class="cluster">
<title>cluster_MemberModule_providers</title>
<polygon fill="none" stroke="black" points="2636,-78 2636,-130 2985,-130 2985,-78 2636,-78"/>
</g>
<g id="clust55" class="cluster">
<title>cluster_MembershipModule</title>
<polygon fill="none" stroke="black" stroke-dasharray="1,5" points="3001,-70 3001,-138 3430,-138 3430,-70 3001,-70"/>
</g>
<g id="clust60" class="cluster">
<title>cluster_MembershipModule_providers</title>
<polygon fill="none" stroke="black" points="3009,-78 3009,-130 3422,-130 3422,-78 3009,-78"/>
</g>
<g id="clust61" class="cluster">
<title>cluster_TranslationModule</title>
<polygon fill="none" stroke="black" stroke-dasharray="1,5" points="3438,-70 3438,-138 3848,-138 3848,-70 3438,-70"/>
</g>
<g id="clust66" class="cluster">
<title>cluster_TranslationModule_providers</title>
<polygon fill="none" stroke="black" points="3446,-78 3446,-130 3840,-130 3840,-78 3446,-78"/>
</g>
<!-- BoardModule -->
<g id="node1" class="node">
<title>BoardModule</title>
<polygon fill="#8dd3c7" stroke="black" points="3965.76,-198 3962.76,-202 3941.76,-202 3938.76,-198 3872.24,-198 3872.24,-162 3965.76,-162 3965.76,-198"/>
<text text-anchor="middle" x="3919" y="-175.8" font-family="Times,serif" font-size="14.00">BoardModule</text>
</g>
<!-- AppModule -->
<g id="node11" class="node">
<title>AppModule</title>
<polygon fill="#8dd3c7" stroke="black" points="4793.66,-263 4790.66,-267 4769.66,-267 4766.66,-263 4710.34,-263 4710.34,-227 4793.66,-227 4793.66,-263"/>
<text text-anchor="middle" x="4752" y="-240.8" font-family="Times,serif" font-size="14.00">AppModule</text>
</g>
<!-- BoardModule&#45;&gt;AppModule -->
<g id="edge1" class="edge">
<title>BoardModule&#45;&gt;AppModule</title>
<path fill="none" stroke="black" d="M3919,-198.09C3919,-221.13 3919,-258 3919,-258 3919,-258 4700.12,-258 4700.12,-258"/>
<polygon fill="black" stroke="black" points="4700.12,-261.5 4710.12,-258 4700.12,-254.5 4700.12,-261.5"/>
</g>
<!-- BoardToMemberModule -->
<g id="node2" class="node">
<title>BoardToMemberModule</title>
<polygon fill="#8dd3c7" stroke="black" points="4140.24,-198 4137.24,-202 4116.24,-202 4113.24,-198 3983.76,-198 3983.76,-162 4140.24,-162 4140.24,-198"/>
<text text-anchor="middle" x="4062" y="-175.8" font-family="Times,serif" font-size="14.00">BoardToMemberModule</text>
</g>
<!-- BoardToMemberModule&#45;&gt;AppModule -->
<g id="edge2" class="edge">
<title>BoardToMemberModule&#45;&gt;AppModule</title>
<path fill="none" stroke="black" d="M4062,-198.28C4062,-219.32 4062,-251 4062,-251 4062,-251 4700.13,-251 4700.13,-251"/>
<polygon fill="black" stroke="black" points="4700.13,-254.5 4710.13,-251 4700.13,-247.5 4700.13,-254.5"/>
</g>
<!-- CadenceModule -->
<g id="node3" class="node">
<title>CadenceModule</title>
<polygon fill="#8dd3c7" stroke="black" points="4265.75,-198 4262.75,-202 4241.75,-202 4238.75,-198 4158.25,-198 4158.25,-162 4265.75,-162 4265.75,-198"/>
<text text-anchor="middle" x="4212" y="-175.8" font-family="Times,serif" font-size="14.00">CadenceModule</text>
</g>
<!-- CadenceModule&#45;&gt;AppModule -->
<g id="edge3" class="edge">
<title>CadenceModule&#45;&gt;AppModule</title>
<path fill="none" stroke="black" d="M4212,-198.11C4212,-217.34 4212,-245 4212,-245 4212,-245 4700.08,-245 4700.08,-245"/>
<polygon fill="black" stroke="black" points="4700.08,-248.5 4710.08,-245 4700.08,-241.5 4700.08,-248.5"/>
</g>
<!-- CoordinatorModule -->
<g id="node4" class="node">
<title>CoordinatorModule</title>
<polygon fill="#8dd3c7" stroke="black" points="4410.7,-198 4407.7,-202 4386.7,-202 4383.7,-198 4283.3,-198 4283.3,-162 4410.7,-162 4410.7,-198"/>
<text text-anchor="middle" x="4347" y="-175.8" font-family="Times,serif" font-size="14.00">CoordinatorModule</text>
</g>
<!-- CoordinatorModule&#45;&gt;AppModule -->
<g id="edge4" class="edge">
<title>CoordinatorModule&#45;&gt;AppModule</title>
<path fill="none" stroke="black" d="M4347,-198.02C4347,-215.37 4347,-239 4347,-239 4347,-239 4700.18,-239 4700.18,-239"/>
<polygon fill="black" stroke="black" points="4700.18,-242.5 4710.18,-239 4700.18,-235.5 4700.18,-242.5"/>
</g>
<!-- CoordinatorToMemberModule -->
<g id="node5" class="node">
<title>CoordinatorToMemberModule</title>
<polygon fill="#8dd3c7" stroke="black" points="4619.18,-198 4616.18,-202 4595.18,-202 4592.18,-198 4428.82,-198 4428.82,-162 4619.18,-162 4619.18,-198"/>
<text text-anchor="middle" x="4524" y="-175.8" font-family="Times,serif" font-size="14.00">CoordinatorToMemberModule</text>
</g>
<!-- CoordinatorToMemberModule&#45;&gt;AppModule -->
<g id="edge5" class="edge">
<title>CoordinatorToMemberModule&#45;&gt;AppModule</title>
<path fill="none" stroke="black" d="M4524,-198.24C4524,-213.57 4524,-233 4524,-233 4524,-233 4700.18,-233 4700.18,-233"/>
<polygon fill="black" stroke="black" points="4700.18,-236.5 4710.18,-233 4700.18,-229.5 4700.18,-236.5"/>
</g>
<!-- DatabaseModule -->
<g id="node6" class="node">
<title>DatabaseModule</title>
<polygon fill="#8dd3c7" stroke="black" points="4807.35,-122 4804.35,-126 4783.35,-126 4780.35,-122 4696.65,-122 4696.65,-86 4807.35,-86 4807.35,-122"/>
<text text-anchor="middle" x="4752" y="-99.8" font-family="Times,serif" font-size="14.00">DatabaseModule</text>
</g>
<!-- DatabaseModule&#45;&gt;BoardModule -->
<g id="edge13" class="edge">
<title>DatabaseModule&#45;&gt;BoardModule</title>
<path fill="none" stroke="black" d="M4696.65,-92C4508.22,-92 3903.37,-92 3903.37,-92 3903.37,-92 3903.37,-151.77 3903.37,-151.77"/>
<polygon fill="black" stroke="black" points="3899.87,-151.77 3903.37,-161.77 3906.87,-151.77 3899.87,-151.77"/>
</g>
<!-- DatabaseModule&#45;&gt;BoardToMemberModule -->
<g id="edge17" class="edge">
<title>DatabaseModule&#45;&gt;BoardToMemberModule</title>
<path fill="none" stroke="black" d="M4696.53,-98C4535.23,-98 4077.67,-98 4077.67,-98 4077.67,-98 4077.67,-151.8 4077.67,-151.8"/>
<polygon fill="black" stroke="black" points="4074.17,-151.8 4077.67,-161.8 4081.17,-151.8 4074.17,-151.8"/>
</g>
<!-- DatabaseModule&#45;&gt;CadenceModule -->
<g id="edge21" class="edge">
<title>DatabaseModule&#45;&gt;CadenceModule</title>
<path fill="none" stroke="black" d="M4696.36,-104C4560.49,-104 4222.77,-104 4222.77,-104 4222.77,-104 4222.77,-151.99 4222.77,-151.99"/>
<polygon fill="black" stroke="black" points="4219.27,-151.99 4222.77,-161.99 4226.27,-151.99 4219.27,-151.99"/>
</g>
<!-- DatabaseModule&#45;&gt;CoordinatorModule -->
<g id="edge25" class="edge">
<title>DatabaseModule&#45;&gt;CoordinatorModule</title>
<path fill="none" stroke="black" d="M4696.63,-110C4588.5,-110 4359.72,-110 4359.72,-110 4359.72,-110 4359.72,-151.97 4359.72,-151.97"/>
<polygon fill="black" stroke="black" points="4356.22,-151.97 4359.72,-161.97 4363.22,-151.97 4356.22,-151.97"/>
</g>
<!-- DatabaseModule&#45;&gt;CoordinatorToMemberModule -->
<g id="edge29" class="edge">
<title>DatabaseModule&#45;&gt;CoordinatorToMemberModule</title>
<path fill="none" stroke="black" d="M4696.55,-116C4634.63,-116 4543.02,-116 4543.02,-116 4543.02,-116 4543.02,-151.83 4543.02,-151.83"/>
<polygon fill="black" stroke="black" points="4539.52,-151.83 4543.02,-161.83 4546.52,-151.83 4539.52,-151.83"/>
</g>
<!-- MeetingModule -->
<g id="node7" class="node">
<title>MeetingModule</title>
<polygon fill="#8dd3c7" stroke="black" points="4743.2,-198 4740.2,-202 4719.2,-202 4716.2,-198 4636.8,-198 4636.8,-162 4743.2,-162 4743.2,-198"/>
<text text-anchor="middle" x="4690" y="-175.8" font-family="Times,serif" font-size="14.00">MeetingModule</text>
</g>
<!-- DatabaseModule&#45;&gt;MeetingModule -->
<g id="edge35" class="edge">
<title>DatabaseModule&#45;&gt;MeetingModule</title>
<path fill="none" stroke="black" d="M4712.08,-122.01C4712.08,-122.01 4712.08,-151.85 4712.08,-151.85"/>
<polygon fill="black" stroke="black" points="4708.58,-151.85 4712.08,-161.85 4715.58,-151.85 4708.58,-151.85"/>
</g>
<!-- MemberModule -->
<g id="node8" class="node">
<title>MemberModule</title>
<polygon fill="#8dd3c7" stroke="black" points="4868.47,-198 4865.47,-202 4844.47,-202 4841.47,-198 4761.53,-198 4761.53,-162 4868.47,-162 4868.47,-198"/>
<text text-anchor="middle" x="4815" y="-175.8" font-family="Times,serif" font-size="14.00">MemberModule</text>
</g>
<!-- DatabaseModule&#45;&gt;MemberModule -->
<g id="edge39" class="edge">
<title>DatabaseModule&#45;&gt;MemberModule</title>
<path fill="none" stroke="black" d="M4789.06,-122.01C4789.06,-122.01 4789.06,-151.85 4789.06,-151.85"/>
<polygon fill="black" stroke="black" points="4785.56,-151.85 4789.06,-161.85 4792.56,-151.85 4785.56,-151.85"/>
</g>
<!-- MembershipModule -->
<g id="node9" class="node">
<title>MembershipModule</title>
<polygon fill="#8dd3c7" stroke="black" points="5017.31,-198 5014.31,-202 4993.31,-202 4990.31,-198 4886.69,-198 4886.69,-162 5017.31,-162 5017.31,-198"/>
<text text-anchor="middle" x="4952" y="-175.8" font-family="Times,serif" font-size="14.00">MembershipModule</text>
</g>
<!-- DatabaseModule&#45;&gt;MembershipModule -->
<g id="edge43" class="edge">
<title>DatabaseModule&#45;&gt;MembershipModule</title>
<path fill="none" stroke="black" d="M4807.42,-112C4870.54,-112 4965.03,-112 4965.03,-112 4965.03,-112 4965.03,-151.78 4965.03,-151.78"/>
<polygon fill="black" stroke="black" points="4961.53,-151.78 4965.03,-161.78 4968.53,-151.78 4961.53,-151.78"/>
</g>
<!-- TranslationModule -->
<g id="node10" class="node">
<title>TranslationModule</title>
<polygon fill="#8dd3c7" stroke="black" points="5158.81,-198 5155.81,-202 5134.81,-202 5131.81,-198 5035.19,-198 5035.19,-162 5158.81,-162 5158.81,-198"/>
<text text-anchor="middle" x="5097" y="-175.8" font-family="Times,serif" font-size="14.00">TranslationModule</text>
</g>
<!-- DatabaseModule&#45;&gt;TranslationModule -->
<g id="edge47" class="edge">
<title>DatabaseModule&#45;&gt;TranslationModule</title>
<path fill="none" stroke="black" d="M4807.44,-102C4907.81,-102 5109.33,-102 5109.33,-102 5109.33,-102 5109.33,-151.91 5109.33,-151.91"/>
<polygon fill="black" stroke="black" points="5105.83,-151.91 5109.33,-161.91 5112.83,-151.91 5105.83,-151.91"/>
</g>
<!-- DatabaseModule&#45;&gt;AppModule -->
<g id="edge6" class="edge">
<title>DatabaseModule&#45;&gt;AppModule</title>
<path fill="none" stroke="black" d="M4752.31,-122.14C4752.31,-122.14 4752.31,-216.93 4752.31,-216.93"/>
<polygon fill="black" stroke="black" points="4748.81,-216.92 4752.31,-226.93 4755.81,-216.93 4748.81,-216.92"/>
</g>
<!-- DatabaseService  -->
<g id="node24" class="node">
<title>DatabaseService </title>
<polygon fill="#fb8072" stroke="black" points="5777.28,-198 5664.72,-198 5664.72,-162 5777.28,-162 5777.28,-198"/>
<text text-anchor="middle" x="5721" y="-175.8" font-family="Times,serif" font-size="14.00">DatabaseService </text>
</g>
<!-- DatabaseModule&#45;&gt;DatabaseService  -->
<g id="edge33" class="edge">
<title>DatabaseModule&#45;&gt;DatabaseService </title>
<path fill="none" stroke="black" stroke-dasharray="5,2" d="M4798.24,-122.17C4798.24,-126.05 4798.24,-129 4798.24,-129 4798.24,-129 5721,-129 5721,-129 5721,-129 5721,-151.88 5721,-151.88"/>
<polygon fill="black" stroke="black" points="5717.5,-151.88 5721,-161.88 5724.5,-151.88 5717.5,-151.88"/>
</g>
<!-- MeetingModule&#45;&gt;AppModule -->
<g id="edge7" class="edge">
<title>MeetingModule&#45;&gt;AppModule</title>
<path fill="none" stroke="black" d="M4726.64,-198.11C4726.64,-198.11 4726.64,-216.99 4726.64,-216.99"/>
<polygon fill="black" stroke="black" points="4723.14,-216.99 4726.64,-226.99 4730.14,-216.99 4723.14,-216.99"/>
</g>
<!-- MemberModule&#45;&gt;AppModule -->
<g id="edge8" class="edge">
<title>MemberModule&#45;&gt;AppModule</title>
<path fill="none" stroke="black" d="M4777.67,-198.11C4777.67,-198.11 4777.67,-216.99 4777.67,-216.99"/>
<polygon fill="black" stroke="black" points="4774.17,-216.99 4777.67,-226.99 4781.17,-216.99 4774.17,-216.99"/>
</g>
<!-- MembershipModule&#45;&gt;AppModule -->
<g id="edge9" class="edge">
<title>MembershipModule&#45;&gt;AppModule</title>
<path fill="none" stroke="black" d="M4952,-198.01C4952,-214.05 4952,-235 4952,-235 4952,-235 4803.93,-235 4803.93,-235"/>
<polygon fill="black" stroke="black" points="4803.93,-231.5 4793.93,-235 4803.93,-238.5 4803.93,-231.5"/>
</g>
<!-- TranslationModule&#45;&gt;AppModule -->
<g id="edge10" class="edge">
<title>TranslationModule&#45;&gt;AppModule</title>
<path fill="none" stroke="black" d="M5097,-198.27C5097,-216.56 5097,-242 5097,-242 5097,-242 4803.96,-242 4803.96,-242"/>
<polygon fill="black" stroke="black" points="4803.96,-238.5 4793.96,-242 4803.96,-245.5 4803.96,-238.5"/>
</g>
<!-- AppDbService -->
<g id="node12" class="node">
<title>AppDbService</title>
<ellipse fill="#fdb462" stroke="black" cx="5251" cy="-104" rx="68.34" ry="18"/>
<text text-anchor="middle" x="5251" y="-99.8" font-family="Times,serif" font-size="14.00">AppDbService</text>
</g>
<!-- AppDbService&#45;&gt;BoardModule -->
<g id="edge14" class="edge">
<title>AppDbService&#45;&gt;BoardModule</title>
<path fill="none" stroke="black" d="M5199.68,-116.32C5199.68,-120.44 5199.68,-124 5199.68,-124 5199.68,-124 3934.63,-124 3934.63,-124 3934.63,-124 3934.63,-151.97 3934.63,-151.97"/>
<polygon fill="black" stroke="black" points="3931.13,-151.97 3934.63,-161.97 3938.13,-151.97 3931.13,-151.97"/>
</g>
<!-- AppDbService&#45;&gt;BoardToMemberModule -->
<g id="edge18" class="edge">
<title>AppDbService&#45;&gt;BoardToMemberModule</title>
<path fill="none" stroke="black" d="M5216.79,-119.99C5216.79,-123.4 5216.79,-126 5216.79,-126 5216.79,-126 4109.02,-126 4109.02,-126 4109.02,-126 4109.02,-151.72 4109.02,-151.72"/>
<polygon fill="black" stroke="black" points="4105.52,-151.72 4109.02,-161.72 4112.52,-151.72 4105.52,-151.72"/>
</g>
<!-- AppDbService&#45;&gt;CadenceModule -->
<g id="edge22" class="edge">
<title>AppDbService&#45;&gt;CadenceModule</title>
<path fill="none" stroke="black" d="M5233.89,-121.67C5233.89,-124.75 5233.89,-127 5233.89,-127 5233.89,-127 4244.32,-127 4244.32,-127 4244.32,-127 4244.32,-151.76 4244.32,-151.76"/>
<polygon fill="black" stroke="black" points="4240.82,-151.76 4244.32,-161.76 4247.82,-151.76 4240.82,-151.76"/>
</g>
<!-- AppDbService&#45;&gt;CoordinatorModule -->
<g id="edge26" class="edge">
<title>AppDbService&#45;&gt;CoordinatorModule</title>
<path fill="none" stroke="black" d="M5251,-122.24C5251,-137.57 5251,-157 5251,-157 5251,-157 4385.16,-157 4385.16,-157 4385.16,-157 4385.16,-157.49 4385.16,-157.49"/>
<polygon fill="black" stroke="black" points="4381.66,-151.88 4385.16,-161.88 4388.66,-151.88 4381.66,-151.88"/>
</g>
<!-- AppDbService&#45;&gt;CoordinatorToMemberModule -->
<g id="edge30" class="edge">
<title>AppDbService&#45;&gt;CoordinatorToMemberModule</title>
<path fill="none" stroke="black" d="M5268.11,-121.71C5268.11,-137.78 5268.11,-159 5268.11,-159 5268.11,-159 4581.05,-159 4581.05,-159 4581.05,-159 4581.05,-159.29 4581.05,-159.29"/>
<polygon fill="black" stroke="black" points="4577.55,-151.92 4581.05,-161.92 4584.55,-151.92 4577.55,-151.92"/>
</g>
<!-- AppDbService&#45;&gt;MeetingModule -->
<g id="edge36" class="edge">
<title>AppDbService&#45;&gt;MeetingModule</title>
<path fill="none" stroke="black" d="M5285.21,-119.88C5285.21,-136.74 5285.21,-161 5285.21,-161 5285.21,-161 4727.59,-161 4727.59,-161 4727.59,-161 4727.59,-161.08 4727.59,-161.08"/>
<polygon fill="black" stroke="black" points="4724.09,-151.82 4727.59,-161.82 4731.09,-151.82 4724.09,-151.82"/>
</g>
<!-- AppDbService&#45;&gt;MemberModule -->
<g id="edge40" class="edge">
<title>AppDbService&#45;&gt;MemberModule</title>
<path fill="none" stroke="black" d="M5187.82,-97C5072.11,-97 4837.96,-97 4837.96,-97 4837.96,-97 4837.96,-151.99 4837.96,-151.99"/>
<polygon fill="black" stroke="black" points="4834.46,-151.99 4837.96,-161.99 4841.46,-151.99 4834.46,-151.99"/>
</g>
<!-- AppDbService&#45;&gt;MembershipModule -->
<g id="edge44" class="edge">
<title>AppDbService&#45;&gt;MembershipModule</title>
<path fill="none" stroke="black" d="M5183.39,-107C5106.38,-107 4991.09,-107 4991.09,-107 4991.09,-107 4991.09,-151.96 4991.09,-151.96"/>
<polygon fill="black" stroke="black" points="4987.59,-151.96 4991.09,-161.96 4994.59,-151.96 4987.59,-151.96"/>
</g>
<!-- AppDbService&#45;&gt;TranslationModule -->
<g id="edge48" class="edge">
<title>AppDbService&#45;&gt;TranslationModule</title>
<path fill="none" stroke="black" d="M5203.41,-117C5171.01,-117 5133.99,-117 5133.99,-117 5133.99,-117 5133.99,-151.78 5133.99,-151.78"/>
<polygon fill="black" stroke="black" points="5130.49,-151.78 5133.99,-161.78 5137.49,-151.78 5130.49,-151.78"/>
</g>
<!-- AppDbService&#45;&gt;AppModule -->
<g id="edge11" class="edge">
<title>AppDbService&#45;&gt;AppModule</title>
<path fill="none" stroke="black" d="M5302.32,-116.36C5302.32,-151.43 5302.32,-249 5302.32,-249 5302.32,-249 4803.81,-249 4803.81,-249"/>
<polygon fill="black" stroke="black" points="4803.81,-245.5 4793.81,-249 4803.81,-252.5 4803.81,-245.5"/>
</g>
<!-- AppService -->
<g id="node13" class="node">
<title>AppService</title>
<ellipse fill="#fdb462" stroke="black" cx="5394" cy="-104" rx="56.74" ry="18"/>
<text text-anchor="middle" x="5394" y="-99.8" font-family="Times,serif" font-size="14.00">AppService</text>
</g>
<!-- AppService&#45;&gt;AppModule -->
<g id="edge12" class="edge">
<title>AppService&#45;&gt;AppModule</title>
<path fill="none" stroke="black" d="M5394,-122.03C5394,-162.3 5394,-256 5394,-256 5394,-256 4804.12,-256 4804.12,-256"/>
<polygon fill="black" stroke="black" points="4804.12,-252.5 4794.12,-256 4804.12,-259.5 4804.12,-252.5"/>
</g>
<!-- BoardDbService -->
<g id="node14" class="node">
<title>BoardDbService</title>
<ellipse fill="#fdb462" stroke="black" cx="245" cy="-104" rx="75.28" ry="18"/>
<text text-anchor="middle" x="245" y="-99.8" font-family="Times,serif" font-size="14.00">BoardDbService</text>
</g>
<!-- BoardDbService&#45;&gt;BoardModule -->
<g id="edge15" class="edge">
<title>BoardDbService&#45;&gt;BoardModule</title>
<path fill="none" stroke="black" d="M245,-122.03C245,-142.77 245,-174 245,-174 245,-174 3862.21,-174 3862.21,-174"/>
<polygon fill="black" stroke="black" points="3862.21,-177.5 3872.21,-174 3862.21,-170.5 3862.21,-177.5"/>
</g>
<!-- BoardService -->
<g id="node15" class="node">
<title>BoardService</title>
<ellipse fill="#fdb462" stroke="black" cx="88" cy="-104" rx="63.68" ry="18"/>
<text text-anchor="middle" x="88" y="-99.8" font-family="Times,serif" font-size="14.00">BoardService</text>
</g>
<!-- BoardService&#45;&gt;BoardModule -->
<g id="edge16" class="edge">
<title>BoardService&#45;&gt;BoardModule</title>
<path fill="none" stroke="black" d="M88,-122.2C88,-146.36 88,-186 88,-186 88,-186 3861.94,-186 3861.94,-186"/>
<polygon fill="black" stroke="black" points="3861.94,-189.5 3871.94,-186 3861.94,-182.5 3861.94,-189.5"/>
</g>
<!-- BoardToMemberDbService -->
<g id="node16" class="node">
<title>BoardToMemberDbService</title>
<ellipse fill="#fdb462" stroke="black" cx="711" cy="-104" rx="118.66" ry="18"/>
<text text-anchor="middle" x="711" y="-99.8" font-family="Times,serif" font-size="14.00">BoardToMemberDbService</text>
</g>
<!-- BoardToMemberDbService&#45;&gt;BoardToMemberModule -->
<g id="edge19" class="edge">
<title>BoardToMemberDbService&#45;&gt;BoardToMemberModule</title>
<path fill="none" stroke="black" d="M711,-122.05C711,-136.37 711,-154 711,-154 711,-154 4046.33,-154 4046.33,-154 4046.33,-154 4046.33,-154.79 4046.33,-154.79"/>
<polygon fill="black" stroke="black" points="4042.83,-151.94 4046.33,-161.94 4049.83,-151.94 4042.83,-151.94"/>
</g>
<!-- BoardToMemberService -->
<g id="node17" class="node">
<title>BoardToMemberService</title>
<ellipse fill="#fdb462" stroke="black" cx="467" cy="-104" rx="107.06" ry="18"/>
<text text-anchor="middle" x="467" y="-99.8" font-family="Times,serif" font-size="14.00">BoardToMemberService</text>
</g>
<!-- BoardToMemberService&#45;&gt;BoardToMemberModule -->
<g id="edge20" class="edge">
<title>BoardToMemberService&#45;&gt;BoardToMemberModule</title>
<path fill="none" stroke="black" d="M467,-122.19C467,-137.18 467,-156 467,-156 467,-156 4014.98,-156 4014.98,-156 4014.98,-156 4014.98,-156.58 4014.98,-156.58"/>
<polygon fill="black" stroke="black" points="4011.48,-151.81 4014.98,-161.81 4018.48,-151.81 4011.48,-151.81"/>
</g>
<!-- CadenceDbService -->
<g id="node18" class="node">
<title>CadenceDbService</title>
<ellipse fill="#fdb462" stroke="black" cx="1119" cy="-104" rx="85.07" ry="18"/>
<text text-anchor="middle" x="1119" y="-99.8" font-family="Times,serif" font-size="14.00">CadenceDbService</text>
</g>
<!-- CadenceDbService&#45;&gt;CadenceModule -->
<g id="edge23" class="edge">
<title>CadenceDbService&#45;&gt;CadenceModule</title>
<path fill="none" stroke="black" d="M1119,-122.04C1119,-135.29 1119,-151 1119,-151 1119,-151 4201.23,-151 4201.23,-151 4201.23,-151 4201.23,-152.08 4201.23,-152.08"/>
<polygon fill="black" stroke="black" points="4197.73,-151.8 4201.23,-161.8 4204.73,-151.8 4197.73,-151.8"/>
</g>
<!-- CadenceService -->
<g id="node19" class="node">
<title>CadenceService</title>
<ellipse fill="#fdb462" stroke="black" cx="943" cy="-104" rx="73.47" ry="18"/>
<text text-anchor="middle" x="943" y="-99.8" font-family="Times,serif" font-size="14.00">CadenceService</text>
</g>
<!-- CadenceService&#45;&gt;CadenceModule -->
<g id="edge24" class="edge">
<title>CadenceService&#45;&gt;CadenceModule</title>
<path fill="none" stroke="black" d="M943,-122.15C943,-135.74 943,-152 943,-152 943,-152 4179.68,-152 4179.68,-152 4179.68,-152 4179.68,-152.98 4179.68,-152.98"/>
<polygon fill="black" stroke="black" points="4176.18,-151.79 4179.68,-161.79 4183.18,-151.79 4176.18,-151.79"/>
</g>
<!-- CoordinatorDbService -->
<g id="node20" class="node">
<title>CoordinatorDbService</title>
<ellipse fill="#fdb462" stroke="black" cx="1534" cy="-104" rx="98.42" ry="18"/>
<text text-anchor="middle" x="1534" y="-99.8" font-family="Times,serif" font-size="14.00">CoordinatorDbService</text>
</g>
<!-- CoordinatorDbService&#45;&gt;CoordinatorModule -->
<g id="edge27" class="edge">
<title>CoordinatorDbService&#45;&gt;CoordinatorModule</title>
<path fill="none" stroke="black" d="M1534,-122.49C1534,-134.14 1534,-147 1534,-147 1534,-147 4334.28,-147 4334.28,-147 4334.28,-147 4334.28,-151.96 4334.28,-151.96"/>
<polygon fill="black" stroke="black" points="4330.78,-151.96 4334.28,-161.96 4337.78,-151.96 4330.78,-151.96"/>
</g>
<!-- CoordinatorService -->
<g id="node21" class="node">
<title>CoordinatorService</title>
<ellipse fill="#fdb462" stroke="black" cx="1331" cy="-104" rx="86.82" ry="18"/>
<text text-anchor="middle" x="1331" y="-99.8" font-family="Times,serif" font-size="14.00">CoordinatorService</text>
</g>
<!-- CoordinatorService&#45;&gt;CoordinatorModule -->
<g id="edge28" class="edge">
<title>CoordinatorService&#45;&gt;CoordinatorModule</title>
<path fill="none" stroke="black" d="M1331,-122.04C1331,-134.56 1331,-149 1331,-149 1331,-149 4308.84,-149 4308.84,-149 4308.84,-149 4308.84,-151.97 4308.84,-151.97"/>
<polygon fill="black" stroke="black" points="4305.34,-151.97 4308.84,-161.97 4312.34,-151.97 4305.34,-151.97"/>
</g>
<!-- CoordinatorToMemberDbService -->
<g id="node22" class="node">
<title>CoordinatorToMemberDbService</title>
<ellipse fill="#fdb462" stroke="black" cx="2092" cy="-104" rx="141.8" ry="18"/>
<text text-anchor="middle" x="2092" y="-99.8" font-family="Times,serif" font-size="14.00">CoordinatorToMemberDbService</text>
</g>
<!-- CoordinatorToMemberDbService&#45;&gt;CoordinatorToMemberModule -->
<g id="edge31" class="edge">
<title>CoordinatorToMemberDbService&#45;&gt;CoordinatorToMemberModule</title>
<path fill="none" stroke="black" d="M2092,-122.13C2092,-132.71 2092,-144 2092,-144 2092,-144 4504.98,-144 4504.98,-144 4504.98,-144 4504.98,-151.58 4504.98,-151.58"/>
<polygon fill="black" stroke="black" points="4501.48,-151.58 4504.98,-161.58 4508.48,-151.58 4501.48,-151.58"/>
</g>
<!-- CoordinatorToMemberService -->
<g id="node23" class="node">
<title>CoordinatorToMemberService</title>
<ellipse fill="#fdb462" stroke="black" cx="1802" cy="-104" rx="130.2" ry="18"/>
<text text-anchor="middle" x="1802" y="-99.8" font-family="Times,serif" font-size="14.00">CoordinatorToMemberService</text>
</g>
<!-- CoordinatorToMemberService&#45;&gt;CoordinatorToMemberModule -->
<g id="edge32" class="edge">
<title>CoordinatorToMemberService&#45;&gt;CoordinatorToMemberModule</title>
<path fill="none" stroke="black" d="M1802,-122.06C1802,-133.44 1802,-146 1802,-146 1802,-146 4466.95,-146 4466.95,-146 4466.95,-146 4466.95,-151.81 4466.95,-151.81"/>
<polygon fill="black" stroke="black" points="4463.45,-151.81 4466.95,-161.81 4470.45,-151.81 4463.45,-151.81"/>
</g>
<!-- DatabaseService -->
<g id="node25" class="node">
<title>DatabaseService</title>
<ellipse fill="#fdb462" stroke="black" cx="5566" cy="-180" rx="75.26" ry="18"/>
<text text-anchor="middle" x="5566" y="-175.8" font-family="Times,serif" font-size="14.00">DatabaseService</text>
</g>
<!-- DatabaseService&#45;&gt;DatabaseModule -->
<g id="edge34" class="edge">
<title>DatabaseService&#45;&gt;DatabaseModule</title>
<path fill="none" stroke="black" d="M5490.23,-180C5375.43,-180 5170.62,-180 5170.62,-180 5170.62,-180 5170.62,-92 5170.62,-92 5170.62,-92 4817.59,-92 4817.59,-92"/>
<polygon fill="black" stroke="black" points="4817.59,-88.5 4807.59,-92 4817.59,-95.5 4817.59,-88.5"/>
</g>
<!-- MeetingDbService -->
<g id="node26" class="node">
<title>MeetingDbService</title>
<ellipse fill="#fdb462" stroke="black" cx="2520" cy="-104" rx="83.95" ry="18"/>
<text text-anchor="middle" x="2520" y="-99.8" font-family="Times,serif" font-size="14.00">MeetingDbService</text>
</g>
<!-- MeetingDbService&#45;&gt;MeetingModule -->
<g id="edge37" class="edge">
<title>MeetingDbService&#45;&gt;MeetingModule</title>
<path fill="none" stroke="black" d="M2520,-122.07C2520,-131.46 2520,-141 2520,-141 2520,-141 4676.68,-141 4676.68,-141 4676.68,-141 4676.68,-151.87 4676.68,-151.87"/>
<polygon fill="black" stroke="black" points="4673.18,-151.87 4676.68,-161.87 4680.18,-151.87 4673.18,-151.87"/>
</g>
<!-- MeetingService -->
<g id="node27" class="node">
<title>MeetingService</title>
<ellipse fill="#fdb462" stroke="black" cx="2346" cy="-104" rx="72.35" ry="18"/>
<text text-anchor="middle" x="2346" y="-99.8" font-family="Times,serif" font-size="14.00">MeetingService</text>
</g>
<!-- MeetingService&#45;&gt;MeetingModule -->
<g id="edge38" class="edge">
<title>MeetingService&#45;&gt;MeetingModule</title>
<path fill="none" stroke="black" d="M2346,-122.11C2346,-131.9 2346,-142 2346,-142 2346,-142 4656.79,-142 4656.79,-142 4656.79,-142 4656.79,-151.89 4656.79,-151.89"/>
<polygon fill="black" stroke="black" points="4653.29,-151.89 4656.79,-161.89 4660.29,-151.89 4653.29,-151.89"/>
</g>
<!-- MemberDbService -->
<g id="node28" class="node">
<title>MemberDbService</title>
<ellipse fill="#fdb462" stroke="black" cx="2892" cy="-104" rx="84.51" ry="18"/>
<text text-anchor="middle" x="2892" y="-99.8" font-family="Times,serif" font-size="14.00">MemberDbService</text>
</g>
<!-- MemberDbService&#45;&gt;MemberModule -->
<g id="edge41" class="edge">
<title>MemberDbService&#45;&gt;MemberModule</title>
<path fill="none" stroke="black" d="M2892,-122.04C2892,-129.75 2892,-137 2892,-137 2892,-137 4779.88,-137 4779.88,-137 4779.88,-137 4779.88,-151.51 4779.88,-151.51"/>
<polygon fill="black" stroke="black" points="4776.38,-151.51 4779.88,-161.51 4783.38,-151.51 4776.38,-151.51"/>
</g>
<!-- MemberService -->
<g id="node29" class="node">
<title>MemberService</title>
<ellipse fill="#fdb462" stroke="black" cx="2717" cy="-104" rx="72.91" ry="18"/>
<text text-anchor="middle" x="2717" y="-99.8" font-family="Times,serif" font-size="14.00">MemberService</text>
</g>
<!-- MemberService&#45;&gt;MemberModule -->
<g id="edge42" class="edge">
<title>MemberService&#45;&gt;MemberModule</title>
<path fill="none" stroke="black" d="M2717,-122.32C2717,-130.79 2717,-139 2717,-139 2717,-139 4770.7,-139 4770.7,-139 4770.7,-139 4770.7,-151.9 4770.7,-151.9"/>
<polygon fill="black" stroke="black" points="4767.2,-151.9 4770.7,-161.9 4774.2,-151.9 4767.2,-151.9"/>
</g>
<!-- MembershipDbService -->
<g id="node30" class="node">
<title>MembershipDbService</title>
<ellipse fill="#fdb462" stroke="black" cx="3313" cy="-104" rx="100.7" ry="18"/>
<text text-anchor="middle" x="3313" y="-99.8" font-family="Times,serif" font-size="14.00">MembershipDbService</text>
</g>
<!-- MembershipDbService&#45;&gt;MembershipModule -->
<g id="edge45" class="edge">
<title>MembershipDbService&#45;&gt;MembershipModule</title>
<path fill="none" stroke="black" d="M3313,-122.14C3313,-128.46 3313,-134 3313,-134 3313,-134 4938.97,-134 4938.97,-134 4938.97,-134 4938.97,-151.82 4938.97,-151.82"/>
<polygon fill="black" stroke="black" points="4935.47,-151.82 4938.97,-161.82 4942.47,-151.82 4935.47,-151.82"/>
</g>
<!-- MembershipService -->
<g id="node31" class="node">
<title>MembershipService</title>
<ellipse fill="#fdb462" stroke="black" cx="3106" cy="-104" rx="88.6" ry="18"/>
<text text-anchor="middle" x="3106" y="-99.8" font-family="Times,serif" font-size="14.00">MembershipService</text>
</g>
<!-- MembershipService&#45;&gt;MembershipModule -->
<g id="edge46" class="edge">
<title>MembershipService&#45;&gt;MembershipModule</title>
<path fill="none" stroke="black" d="M3106,-122.24C3106,-129.43 3106,-136 3106,-136 3106,-136 4912.91,-136 4912.91,-136 4912.91,-136 4912.91,-151.85 4912.91,-151.85"/>
<polygon fill="black" stroke="black" points="4909.41,-151.85 4912.91,-161.85 4916.41,-151.85 4909.41,-151.85"/>
</g>
<!-- TranslationDbService -->
<g id="node32" class="node">
<title>TranslationDbService</title>
<ellipse fill="#fdb462" stroke="black" cx="3736" cy="-104" rx="95.54" ry="18"/>
<text text-anchor="middle" x="3736" y="-99.8" font-family="Times,serif" font-size="14.00">TranslationDbService</text>
</g>
<!-- TranslationDbService&#45;&gt;TranslationModule -->
<g id="edge49" class="edge">
<title>TranslationDbService&#45;&gt;TranslationModule</title>
<path fill="none" stroke="black" d="M3736,-122.16C3736,-127.04 3736,-131 3736,-131 3736,-131 5084.67,-131 5084.67,-131 5084.67,-131 5084.67,-151.75 5084.67,-151.75"/>
<polygon fill="black" stroke="black" points="5081.17,-151.75 5084.67,-161.75 5088.17,-151.75 5081.17,-151.75"/>
</g>
<!-- TranslationService -->
<g id="node33" class="node">
<title>TranslationService</title>
<ellipse fill="#fdb462" stroke="black" cx="3538" cy="-104" rx="83.94" ry="18"/>
<text text-anchor="middle" x="3538" y="-99.8" font-family="Times,serif" font-size="14.00">TranslationService</text>
</g>
<!-- TranslationService&#45;&gt;TranslationModule -->
<g id="edge50" class="edge">
<title>TranslationService&#45;&gt;TranslationModule</title>
<path fill="none" stroke="black" d="M3538,-122.21C3538,-127.55 3538,-132 3538,-132 3538,-132 5060.01,-132 5060.01,-132 5060.01,-132 5060.01,-151.85 5060.01,-151.85"/>
<polygon fill="black" stroke="black" points="5056.51,-151.85 5060.01,-161.85 5063.51,-151.85 5056.51,-151.85"/>
</g>
</g>
</svg>
